<svg id="Layer_1" data-name="Layer 1" xmlns="http://www.w3.org/2000/svg" viewBox="0 0 559.2 389.75"><defs><style>.cls-1{fill:#fff;}</style></defs><title>adidaslogoW</title><path class="cls-1" d="M278.58,389.75a229.76,229.76,0,0,1-31.7-44.6c-.85-1.54-2.23-2.9-2.12-5.07h70c-9.1,18.36-20.8,34.55-34.16,49.63Z" transform="translate(0.04 0)"/><path class="cls-1" d="M279.06,233.33c-21.83,0-43.66-.18-65.48.14-4.55.07-5.65-1.57-6-5.45-3.5-39.54-.47-78.51,10.48-116.72,9.64-33.66,23.46-65.38,44.76-93.45,4.12-5.43,8.93-10.32,13.31-15.55,2.39-2.86,4.14-3.19,7-.18,16.06,16.8,28.27,36.15,38.28,56.94,20.71,43.06,31.66,88.49,31.88,136.33,0,11.45-1.3,22.91-1.82,34.38-.15,3.25-1.7,3.62-4.46,3.61C324.38,233.29,301.72,233.33,279.06,233.33Z" transform="translate(0.04 0)"/><path class="cls-1" d="M195.58,232.56c-1.87,1.21-3.4.74-4.84.74q-78,0-155.93.1c-3,0-4.77-.67-6.14-3.55C13.1,197.18,1.36,163.46,0,126.85c-.18-4.82.22-9.65.11-14.47-.08-3.12,1.08-4,4.12-3.61a189.32,189.32,0,0,1,37,7.81c62.39,20.12,112.91,56.48,150.64,110.3C193.24,228.72,194.39,230.65,195.58,232.56Z" transform="translate(0.04 0)"/><path class="cls-1" d="M364.44,232.75a160.26,160.26,0,0,1,15.25-21.6c38.07-46.54,85.76-78.7,143.42-95.91a191.1,191.1,0,0,1,31.24-6.31c2.87-.36,4.08-.18,4.36,3.51,3.12,42.34-10.31,80.64-28.18,117.91-.92,1.91-1.91,3.08-4.44,3.08q-80-.15-159.93-.1A7.42,7.42,0,0,1,364.44,232.75Z" transform="translate(0.04 0)"/><path class="cls-1" d="M41.58,254.3H518c-4.15,7.93-8.54,15.17-14.67,21.23-1.34,1.33-3.53.59-5.32.59H331q-135,0-269.92.1c-3.77,0-6.14-1.06-8.2-4.15C49.12,266.44,44.8,261.15,41.58,254.3Z" transform="translate(0.04 0)"/><path class="cls-1" d="M74.48,298.85h409c.88,1.54-.48,2.18-1.13,3a82.81,82.81,0,0,1-9.1,9.25c-6.12,5.66-12.86,8.07-21.56,8q-175.48-.43-351-.12a13.68,13.68,0,0,1-9.9-3.57A136.12,136.12,0,0,1,74.48,298.85Z" transform="translate(0.04 0)"/><path class="cls-1" d="M434.06,339.94a225.24,225.24,0,0,1-31.59,20.41c-24.65,13.24-50.57,22.74-78.53,26.07-6.08.72-6.18.85-6.05-5.1.28-12.46.72-24.91,2.64-37.27.46-2.93,1.2-4.21,4.59-4.2C360.9,340,396.69,339.94,434.06,339.94Z" transform="translate(0.04 0)"/><path class="cls-1" d="M126.2,339.94c36.37,0,72.36,0,108.35-.07,3.08,0,4.43.78,4.73,3.91a351,351,0,0,1,1.3,40.37c-.09,4.48-3.16,2.44-4.9,2.25A196,196,0,0,1,186,373.79,268.47,268.47,0,0,1,129.07,343c-.82-.58-1.65-1.14-2.42-1.77C126.45,341.15,126.44,340.74,126.2,339.94Z" transform="translate(0.04 0)"/></svg>