<svg id="Layer_1" data-name="Layer 1" xmlns="http://www.w3.org/2000/svg" viewBox="0 0 559.16 389.75"><title>adidaslogo</title><path d="M511,545.6A230,230,0,0,1,479.3,501c-.85-1.54-2.23-2.9-2.12-5.07h70c-9.1,18.36-20.8,34.55-34.16,49.63Z" transform="translate(-232.42 -155.85)"/><path d="M511.48,389.18c-21.83,0-43.66-.18-65.48.14-4.55.07-5.65-1.57-6-5.45-3.5-39.54-.47-78.51,10.48-116.72,9.64-33.66,23.46-65.38,44.76-93.45,4.12-5.43,8.93-10.32,13.31-15.55,2.39-2.86,4.14-3.19,7-.18,16.06,16.8,28.27,36.15,38.28,56.94,20.71,43.06,31.66,88.49,31.88,136.33,0,11.45-1.3,22.91-1.82,34.38-.15,3.25-1.7,3.62-4.46,3.61C556.8,389.14,534.14,389.18,511.48,389.18Z" transform="translate(-232.42 -155.85)"/><path d="M428,388.41c-1.87,1.21-3.4.74-4.84.74q-78,0-155.93.1c-3,0-4.77-.67-6.14-3.55-15.57-32.67-27.31-66.39-28.66-103-.18-4.82.22-9.65.11-14.47-.08-3.12,1.08-4,4.12-3.61a189.3,189.3,0,0,1,37,7.81c62.39,20.12,112.91,56.48,150.64,110.3C425.66,384.57,426.81,386.5,428,388.41Z" transform="translate(-232.42 -155.85)"/><path d="M596.86,388.6A160.46,160.46,0,0,1,612.11,367c38.07-46.54,85.76-78.7,143.42-95.91a191.94,191.94,0,0,1,31.24-6.31c2.87-.36,4.08-.18,4.36,3.51,3.12,42.34-10.31,80.64-28.18,117.91-.92,1.91-1.91,3.08-4.44,3.08q-80-.15-159.93-.1A7.39,7.39,0,0,1,596.86,388.6Z" transform="translate(-232.42 -155.85)"/><path d="M274,410.15H750.37c-4.15,7.93-8.54,15.17-14.67,21.23-1.34,1.33-3.53.59-5.32.59q-83.48,0-167,0-135,0-269.92.1c-3.77,0-6.14-1.06-8.2-4.15C281.54,422.29,277.22,417,274,410.15Z" transform="translate(-232.42 -155.85)"/><path d="M306.9,454.7h409c.88,1.54-.48,2.18-1.13,3a82.78,82.78,0,0,1-9.1,9.25c-6.12,5.66-12.86,8.07-21.56,8.05q-175.48-.44-351-.12a13.7,13.7,0,0,1-9.9-3.57A136.76,136.76,0,0,1,306.9,454.7Z" transform="translate(-232.42 -155.85)"/><path d="M666.48,495.79a225.15,225.15,0,0,1-31.59,20.41c-24.65,13.24-50.57,22.74-78.53,26.07-6.08.72-6.18.85-6.05-5.1.28-12.46.72-24.91,2.64-37.27.46-2.93,1.2-4.21,4.59-4.2C593.32,495.85,629.11,495.79,666.48,495.79Z" transform="translate(-232.42 -155.85)"/><path d="M358.62,495.79c36.37,0,72.36,0,108.35-.07,3.08,0,4.43.78,4.73,3.91A351.71,351.71,0,0,1,473,540c-.09,4.48-3.16,2.44-4.9,2.25a195.7,195.7,0,0,1-49.68-12.61,268.23,268.23,0,0,1-56.93-30.75c-.82-.58-1.65-1.14-2.42-1.77C358.87,497,358.86,496.59,358.62,495.79Z" transform="translate(-232.42 -155.85)"/></svg>