<svg id="Layer_1" data-name="Layer 1" xmlns="http://www.w3.org/2000/svg" viewBox="0 0 487.3 405.43"><defs><style>.cls-1{fill:#fff;}.cls-2{fill:#3f3f3f;}.cls-3{fill:#767676;}.cls-4{fill:#595959;}</style></defs><title>dclogoW</title><path class="cls-1" d="M454.44,246.07c-6.53-6.8-13.15-13.51-19.51-20.46-2.15-2.34-3.27-2.29-5.56-.08-7.13,6.86-14.58,13.37-21.32,19.49.48-4.1,1.11-9.9,1.83-15.7.54-4.43,1-8.89,1.85-13.27.44-2.3-.1-3.15-2.36-3.3-4.42-.3-8.83-.75-13.24-1.13-5.16-1-10.49.18-15.65-1.35-2-.59-3.12-.83-1-2.66,8.24-4.89,16.44-9.85,24.75-14.61,2.91-1.66,2.12-3.16.69-5.3-5.52-8.28-10.9-16.65-17.24-26.38,7.47,2.7,13.56,4.89,19.64,7.11,2.41.88,4.78,1.87,7.18,2.76,6.63,2.46,6.63,2.45,8.85-4.48a222.17,222.17,0,0,1,9.35-25.37c2.87,8.82,6,17.57,8.51,26.49,1.34,4.7,2.84,6,7.71,3.76,7.46-3.37,15.36-5.74,23.06-8.53,2.11-.76,3-.29,2,2-4.65,7.2-9.12,14.53-14,21.54-2.36,3.36-2.62,5,1.44,7.22,8.36,4.56,16.36,9.79,25.85,15.56-4,.53-6.68,1-9.39,1.22-7,.71-13.94,1.76-20.91,1.88-4.65.07-4.84,2.07-4.28,5.68,1.11,7.13,2,14.3,2.93,21.45C455.64,241.86,457.67,244.47,454.44,246.07Z" transform="translate(0.03 -0.01)"/><path class="cls-2" d="M135.64,84.55c5,.07,10.08.21,14.56,3C145.29,86.9,140.34,86.3,135.64,84.55Z" transform="translate(0.03 -0.01)"/><path class="cls-3" d="M454.44,246.07c2.41-1.76.06-4.42,1.2-6.42,1.3,1.7.84,3.85,1.41,5.74.27.89.83,2.16-.57,2.44C455.49,248,454.75,247.1,454.44,246.07Z" transform="translate(0.03 -0.01)"/><path class="cls-4" d="M474.05,165.1c.06-1.43-.9-1.83-2-2,1-1.06,2.55-2.52,3.69-1.3S475,164.15,474.05,165.1Z" transform="translate(0.03 -0.01)"/><path class="cls-1" d="M393.63,121.75q38.55-.24,77.1,0c3.46,0,4.28-1,4.26-4.41Q474.83,62,475,6.57c0-3.64-1-4.65-4.61-4.63-33.4.23-66.81,0-100.22.44A278,278,0,0,0,242.1,35.15c-3.13,1.66-5.32,1.58-8.39-.12C191.81,11.71,146.71.72,99,.19,67.46-.16,35.93.19,4.4,0,.52,0,0,1.27,0,4.67.19,16.23.08,27.79.08,39.35q0,88.5-.09,177c0,4.1.69,5.55,5.2,5.5,25-.25,50-.19,75,0,3.81,0,5-1.06,5-5,0-17.07.29-34.15.44-51.22.22-26,.54-52.09.51-78.13,0-4.44,1.63-5,5.37-5,14.73.06,29.46-.06,44.09,2,4.82,1.17,9.88,1.17,14.56,3C154.09,88.67,158,89.78,162,91c8.25,2.6,8.24,2.63,3.13,9.76-.7,1-1.42,1.94-2.1,2.94-30.5,44.88-39.72,93.41-24.56,146.06,6.12,21.26,16.4,40.41,29.63,58,3.41,4.54,3.45,4.54-2.13,6.47-2.9,1-5.83,2-8.77,2.87-22.29,6.84-45.21,7-68.2,6.7-3.33,0-3.93-1.34-3.9-4.32.12-15-.08-30,.15-45,.06-4.12-.77-5.63-5.27-5.59-25.19.23-50.37.16-75.56,0-3.17,0-4.42.48-4.4,4.11Q.17,335.9,0,398.8c0,3.87,1.37,4.39,4.73,4.37,19.71-.15,39.41,0,59.11-.09,23.28-.09,46.57.63,69.79-2.29,34.45-4.33,67.21-14,97.89-30.49,3.59-1.93,6.21-2,9.82,0,38.33,21.63,79.87,32.65,123.46,34.4,35.41,1.42,70.92.33,106.39.53,3.52,0,3.78-1.46,3.78-4.28q-.1-63.68,0-127.33c0-3.36-.92-4.37-4.37-4.35q-38.29.23-76.59,0c-4.35,0-5.07,1.67-5.07,5.5,0,13.45-.08,26.91-.65,40.35-.34,8,1.32,7.13-7.26,7.24-3.08,0-6.17-.07-9.25,0a177.22,177.22,0,0,1-62.62-9.44c-5-1.72-4.12-3.1-1.61-6.45,19.94-26.58,32.34-56.27,34.93-89.64,3.46-44.63-9.71-84.31-36.27-119.8-3.34-4.47-3.31-4.31,2.2-6.32,25.12-9.13,51.2-10.23,77.51-9.7,3.31.06,3.44,1.67,3.42,4.21-.09,10.52.08,21-.11,31.57C389.18,120.27,389.76,121.78,393.63,121.75Zm-154,136.87c-.37.56-.82,1.07-1.44,1.88C214,228.6,212.31,181.43,233.84,148c1.73-2.68,2.62-3.53,4.8-.34,22.35,32.7,22.81,78,1,111Z" transform="translate(0.03 -0.01)"/></svg>