<svg id="Layer_1" data-name="Layer 1" xmlns="http://www.w3.org/2000/svg" viewBox="0 0 1007.24 326.47"><defs><style>.cls-1{font-size:234.69px;font-family:WetDreamzDemi, Wet Dreamz;}.cls-1,.cls-3,.cls-4{fill:#fff;}.cls-2{fill:#00f9ff;}.cls-3,.cls-4{stroke:#000;stroke-linejoin:round;}.cls-3{stroke-width:6.02px;}.cls-4{stroke-width:7.72px;}.cls-5{fill:#00fff2;}</style></defs><title>dripftwr</title><text class="cls-1" transform="translate(466.07 251.06)">ftwr</text><path d="M477.31,557.22a26,26,0,0,0-4.13-13.31,36.56,36.56,0,0,0-5.15-6.18l-.15-.15-.21-.2-.21-.21-.2-.21-.21-.21-.21-.21-.21-.21-.21-.2-.2-.21-.21-.21-.21-.21-.21-.21-.21-.21-.21-.2-.2-.21-.21-.21-.21-.21-.21-.21-.21-.2-.21-.21-.2-.21-.21-.21-.21-.21-.21-.21-.21-.2-.21-.21-.2-.21-.21-.21-.21-.21-.21-.21-.21-.2-.21-.21-.2-.21-.21-.21-.21-.21-.21-.2-.21-.21-.2-.21-.21-.21-.21-.21-.21-.21-.21-.2-.21-.21-.2-.21-.21-.21-.21-.21-.21-.21-.21-.2-.21-.21-.2-.21-.21-.21-.21-.21-.21-.21-.21-.2-.2-.21-.21-.21-.21-.21-.21-.21-.21-.2-.21-.21-.2-.21-.21-.21-.21-.21-.21-.21-.21-.2-.21-.21-.2-.21-.21-.21-.21-.21-.21-.21-.21-.2-.21-.21-.2-.21-.21-.21-.21-.21-.21-.21-.21-.2-.2-.21-.21-.21-.21-.21-.21-.21-.21-.21-.21-.2-.2-.21-.21-.21-.21-.21-.21-.21-.21-.2-.21-.21-.2-.21-.21-.21-.21-.21-.21-.21-.21-.2-.21-.21-.2-.21-.21-.21-.21-.21-.21-.21-.21-.2-.21-.21-.2-.21-.21-.21-.21-.21-.21-.2-.21-.21-.2-.21-.21-.21-.21-.21-.21-.21-.21-.2-.21-.21-.2-.21-.21-.21-.21-.21-.21-.21-.21-.2-.21-.21-.2-.21-.21-.21-.21-.21-.21-.2-.21-.21-.21-.21-.2-.21-.21-.21-.21-.21-.21-.2-.21-.21-.2-.21-.21-.21-.21-.21-.21-.21-.21-.2-.21-.21-.2-.21-.2-.2c-.73-.72-1.47-1.42-2.24-2a38.12,38.12,0,0,0-10.06-6l-.31-.13-.32-.11a16.89,16.89,0,0,0-5.35-.86,20.27,20.27,0,0,0-8.59,2c-.73.35-1.47.73-2.2,1.14l-.11-.11-.21-.21-.21-.2-.21-.21-.21-.21-.2-.21-.21-.21-.21-.21-.21-.2-.21-.21-.21-.21-.2-.21-.21-.21a35.51,35.51,0,0,0-7.31-5.65l-.06-.07-.21-.21-.21-.2-.21-.21-.21-.21-.2-.21-.21-.21-.21-.2-.21-.21-.21-.21-.21-.21-.2-.21-.21-.21-.21-.2-.21-.21-.21-.21-.2-.21-.21-.21-.21-.21-.21-.2-.21-.21-.21-.21-.2-.21-.21-.21-.21-.21-.21-.2-.21-.21-.21-.21-.2-.21-.21-.21-.21-.21-.21-.2-.21-.21-.2-.21-.21-.21-.21-.21-.21-.2c-.07-.07-.14-.15-.21-.21l-.21-.21-.2-.21-.21-.21-.21-.21-.21-.2c-.07-.07-.14-.15-.21-.21l-.21-.21-.2-.21-.21-.21-.21-.21-.21-.2c-.07-.07-.14-.15-.21-.21l-.21-.21-.2-.21-.21-.21-.21-.21-.21-.2c-.07-.07-.14-.15-.21-.21l-.21-.21-.2-.21-.21-.21-.21-.2-.21-.21-.21-.21-.2-.21-.21-.21-.21-.21-.21-.2-.21-.21-.21-.21-.2-.21-.21-.21-.21-.21-.21-.2-.21-.21-.21-.21-.2-.21-.21-.21-.21-.21-.21-.2-.21-.21-.21-.21-.2-.21-.21-.21-.21-.2-.21-.21-.21-.21-.2-.21-.21-.21-.21-.21-.21-.2-.21-.21-.21-.21-.2-.21-.21-.21-.21-.21-.21-.2-.21-.21-.21-.21-.2-.21-.21-.21-.21-.21-.21-.2-.21-.21-.21-.21-.2-.21-.21-.21-.21-.21-.21-.2-.21-.21-.2-.21-.19-.18a28.63,28.63,0,0,0-4-3.38,13.64,13.64,0,0,0-7.9-2.68,11.89,11.89,0,0,0-3.37.49,17.37,17.37,0,0,0-5.79,3.1,23,23,0,0,0-4.34,4.7l-.09.13-1.74,2.6-.12.21c-.32.52-.76,1.17-1.32,1.92-.92,1.23-1.89,2.64-2.87,4.22l-.12.19-.12.21a35.51,35.51,0,0,0-3.22,8.86,17.73,17.73,0,0,0-.16,8,11.78,11.78,0,0,0-2.79,1.56,18.51,18.51,0,0,0-3.31,3.19,15.89,15.89,0,0,0-3.13,5.15c-.14.29-.26.58-.4.87a39.52,39.52,0,0,0-7.8-6.42,57.85,57.85,0,0,0-6.5-3.54,18,18,0,0,0-8-1.85,21.32,21.32,0,0,0-11.09,3.33,48.37,48.37,0,0,0-6.15,4.46l-.2-.2c-.07-.06-.13-.14-.21-.2L293,507l-.21-.21-.21-.21-.21-.21-.21-.21-.2-.2-.21-.21-.21-.21-.21-.21-.21-.21-.2-.2-.17-.17a31.9,31.9,0,0,0-8.55-6.58c-1.72-.88-3.22-1.58-4.58-2.12A67.94,67.94,0,0,0,265,478.7l-.08-.07-.13-.14-.08-.07-.13-.14-.08-.07-.13-.13-.08-.08-.13-.13-.08-.08-.12-.13-.08-.08a1.59,1.59,0,0,1-.13-.13l-.08-.07-.13-.14-.08-.07-.13-.14-.08-.07-.13-.13-.08-.08-.13-.13-.07-.08-.13-.13-.08-.08a1.59,1.59,0,0,1-.13-.13l-.08-.07-.13-.14-.08-.07-.13-.14-.08-.07-.13-.13-.08-.08-.13-.13-.07-.08-.13-.13-.08-.07-.13-.14-.08-.07-.13-.14-.08-.07-.13-.14-.08-.07-.13-.13-.08-.08-.13-.13-.07-.08-.13-.13-.08-.07-.13-.14-.08-.07-.13-.14-.08-.07a1.59,1.59,0,0,0-.13-.13.6.6,0,0,0-.08-.08l-.13-.13-.07-.08-.13-.13-.08-.07-.13-.14-.08-.07-.13-.14-.08-.07-.13-.14-.08-.07a1.59,1.59,0,0,0-.13-.13.6.6,0,0,0-.08-.08l-.13-.13-.07-.08-.13-.13-.08-.08-.13-.13-.08-.07-.13-.14-.08-.07-.13-.14-.08-.07a1.59,1.59,0,0,0-.13-.13.6.6,0,0,0-.08-.08l-.13-.13-.07-.08-.13-.13-.08-.07-.13-.14-.08-.07-.13-.14-.08-.07-.13-.14-.08-.07a1.59,1.59,0,0,0-.13-.13l-.08-.08-.12-.13-.08-.08-.13-.13-.08-.07-.13-.14-.08-.07-.13-.14-.08-.07-.13-.13-.08-.08a1.59,1.59,0,0,0-.13-.13l-.07-.08a1.59,1.59,0,0,1-.13-.13l-.08-.08-.13-.13-.08-.07-.13-.14-.08-.07-.13-.14-.08-.07-.13-.13-.08-.08a1.59,1.59,0,0,0-.13-.13l-.07-.08a1.59,1.59,0,0,1-.13-.13l-.08-.08-.13-.13-.08-.07-.13-.14-.08-.07-.13-.14-.08-.07-.13-.13-.08-.08a1.59,1.59,0,0,0-.13-.13l-.07-.08a1.59,1.59,0,0,1-.13-.13l-.08-.07-.13-.14-.08-.07-.13-.14-.08-.07-.13-.14-.08-.07-.13-.13-.08-.08a1.59,1.59,0,0,0-.13-.13l-.07-.08a1.59,1.59,0,0,1-.13-.13l-.08-.07-.13-.14-.08-.07-.13-.14-.08-.07-.13-.13-.08-.08-.13-.13-.08-.08-.12-.13a.6.6,0,0,1-.08-.08,1.59,1.59,0,0,1-.13-.13l-.08-.07-.13-.14-.08-.07-.13-.14-.08-.07-.13-.13-.08-.08-.13-.13-.07-.08-.13-.13-.08-.07-.13-.14-.08-.07-.13-.14-.08-.07-.13-.14-.08-.07-.13-.13-.08-.08-.13-.13-.07-.08-.13-.13-.08-.07-.13-.14-.08-.07-.13-.14-.08-.07-.13-.14-.08-.07-.13-.13-.08-.08-.13-.13-.07-.08-.13-.13-.08-.07-.13-.14-.08-.07-.13-.14-.08-.07a1.59,1.59,0,0,0-.13-.13l-.08-.08-.13-.13-.07-.08-.13-.13-.08-.08-.13-.13-.08-.07-.13-.14-.08-.07-.13-.14-.08-.07a1.59,1.59,0,0,0-.13-.13l-.08-.08-.13-.13-.07-.08-.13-.13-.08-.08-.13-.13-.08-.07-.13-.14-.08-.07-.13-.14-.08-.07a1.59,1.59,0,0,0-.13-.13l-.08-.08-.13-.13-.07-.08-.13-.13-.08-.07-.13-.14-.08-.07-.13-.14-.08-.07-.13-.14-.08-.07a1.59,1.59,0,0,0-.13-.13l-.08-.08-.13-.13-.07-.08-.13-.13-.08-.07-.13-.14-.08-.07-.13-.14-.08-.07a.8.8,0,0,0-.13-.13l-.08-.08a1.59,1.59,0,0,0-.13-.13l-.07-.08a1.59,1.59,0,0,1-.13-.13.6.6,0,0,1-.08-.08l-.13-.13-.08-.07-.13-.14-.08-.07-.13-.14-.08-.07-.13-.13-.08-.08a1.59,1.59,0,0,0-.13-.13l-.08-.08-.12-.13a.6.6,0,0,1-.08-.08l-.13-.13-.08-.07-.13-.14-.08-.07-.13-.14-.08-.07-.13-.13-.08-.08a1.59,1.59,0,0,0-.13-.13l-.07-.08a1.59,1.59,0,0,1-.13-.13l-.08-.07-.13-.14-.08-.07-.13-.14-.08-.07-.13-.14-.08-.07-.13-.13-.08-.08a1.59,1.59,0,0,0-.13-.13l-.07-.08a1.59,1.59,0,0,1-.13-.13l-.08-.07-.13-.14a77.1,77.1,0,0,0-16.83-12.64c-13.41-7.45-29.4-11.51-47.51-12.05H168.9c-16.8,0-32.14,1.62-45.58,4.81A121.84,121.84,0,0,0,105,435.73,68.8,68.8,0,0,0,87.7,445.85a54.54,54.54,0,0,0-13,15.16,43,43,0,0,0-5.46,21.85,24,24,0,0,0,.43,4.64c.21,1,.47,2.13.79,3.32a20.33,20.33,0,0,0,2.07,4.91,17.66,17.66,0,0,0,3.67,4.64h0l.21.21.21.21.2.2.21.21.21.21.21.21.21.21.21.21.2.2.21.21.21.21.21.21.21.21.2.21.21.2.21.21.21.21.21.21.21.21c.07.07.13.14.2.2l.21.21.21.21.21.21.21.21.21.21a1.89,1.89,0,0,0,.2.2l.21.21.21.21.21.21.21.21.21.21a1.89,1.89,0,0,0,.2.2l.21.21.21.21.21.21.21.21.2.21.21.2.21.21.21.21.21.21.21.21.2.21.21.2.21.21.21.21.21.21.21.21.2.2c.07.08.14.14.21.21l.21.21.21.21.21.21.21.21.2.2c.07.08.14.14.21.21l.21.21.21.21.21.21.2.21.21.2.21.21.21.21.21.21.21.21.2.21.21.2.21.21.21.21.21.21.21.21.2.2.21.21.21.21.21.21.21.21.21.21.2.2.21.21.21.21.21.21.21.21.2.21.21.2.21.21.21.21.21.21.21.21.2.21.21.2.21.21.21.21.21.21.21.21.2.2.21.21.21.21.21.21.21.21.21.21.2.2.21.21.21.21.21.21.21.21.2.21.21.2.21.21.21.21.21.21.21.21.2.21.21.2.21.21.21.21.21.21.21.21.2.21.21.2.21.21.21.21.21.21.21.21.2.2.21.21.21.21.21.21.21.21.2.21.21.2.21.21.21.21.11.11a15.72,15.72,0,0,0,7.29,4.67,13,13,0,0,0,3.82.56l.64,0c-.6,2.48-1.24,5.21-2,8.29-.23,1-.43,1.95-.63,2.93l-.16-.15-.21-.21-.21-.21-.2-.21-.21-.21-.21-.2a20.08,20.08,0,0,0-4.32-3.53A30.15,30.15,0,0,0,98,536a43.55,43.55,0,0,0-9.2-1,30.87,30.87,0,0,0-8.76,1.11c-6.08,1.62-10,6.67-10.21,13.23a35.13,35.13,0,0,0,.53,8.15,58,58,0,0,0,13.21,28.18,60,60,0,0,0,4.19,4.5l.15.16.21.21.21.21.21.2.21.21.2.21.21.21.21.21.21.2.21.21.21.21.21.21.2.21.21.21.21.2.21.21.21.21.2.21.21.21.21.21.21.2.21.21.2.21.21.21.21.21.21.21.21.2.21.21.21.21.2.21.21.21.21.2.21.21.21.21.21.21.2.21.21.21.21.2.21.21.21.21.2.21.21.21.21.21.21.2.21.21.21.21.2.21.21.21.21.2.21.21.21.21.21.21.2.21.21.21.21.2.21.21.21.21.2.21.21.21.21.21.21.2.21.21.21.21.2.21.21.21.21.2.21.21.21.21.21.21.2.21.21.21.21.21.21.2.21.21.2.21.21.21.21.21.21.2.21.21.21.21.21.21.2.21.21.21.21.2.21.21.21.21.2.21.21.21.21.21.21.2.21.21.21.21.2.21.21.21.21.21.21.2.21.21.21.21.2.21.21.21.21.2.21.21.21.21.21.21.2.21.21.21.21.2.21.21.21.21.2.21.21.21.21.21.21.2.21.21.21.21.2.21.21.21.21.21.21.2.21.21.21.21.2.21.21.21.21.2.21.21.21.21.2.21.21.21.21.21.21.2.21.21.21.21.2.21.18.17a75.11,75.11,0,0,0,7.74,6.87,73,73,0,0,0,15.41,8.9,102.58,102.58,0,0,0,20.06,6.15,128.16,128.16,0,0,0,25.66,2.34h.32A123.84,123.84,0,0,0,214.24,638a100.43,100.43,0,0,0,23.44-9.8,88.9,88.9,0,0,0,17.81-13.6l.1-.1.1.09.21.21.21.21.2.21.21.21.21.2.21.21.21.21.2.21c.08.07.14.14.21.21l.21.21.21.2.21.21.21.21.2.21c.08.07.14.14.21.21l.21.21.21.2.21.21.21.21.2.21c.08.07.14.14.21.21l.21.2.21.21.21.21.21.21.2.21c.08.07.14.14.21.21l.21.2.21.21.21.21.2.21.21.21.21.21.21.2.21.21.21.21.2.21.21.21.21.21.21.2.21.21.21.21.2.21.21.21.21.21.21.2.21.21.21.21.2.21.21.21.21.2.21.21.21.21.2.21.21.21.21.21.21.2.21.21.21.21.2.21.21.21.21.21.11.11a30.86,30.86,0,0,0,6.21,4.93,28.07,28.07,0,0,0,12,3.62l.48.05h.49a13.08,13.08,0,0,0,5.18-1.16,11.74,11.74,0,0,0,6.85-9.17l.09-.49a178.74,178.74,0,0,1,11.42-25.12q3-5.31,5.77-9.82a22.47,22.47,0,0,0,4.75,6.89l.21.21.21.21.21.21.21.21.2.21.21.2.21.21.21.21.21.21.21.21.2.21.21.2.21.21.21.21.21.21.21.21.2.2.21.21.21.21.21.21.21.21.21.21.2.2.21.21.21.21.21.21.21.21.2.21.21.2.21.21.21.21.21.21.21.21.2.21.21.2.21.21.21.21.21.21.21.21.2.2.21.21.21.21.21.21.21.21.2.21.21.2.21.21.21.21.21.21.21.21.2.21.21.2.21.21.21.21.21.21.21.21.2.21.21.2.21.21.21.21.21.21.21.21.2.2.21.21.21.21.21.21.21.21.21.21.2.2.21.21.21.21.21.21.21.21.2.21.21.2.21.21.21.21.21.21.21.21.2.21.21.2.21.21.21.21.21.21.21.21a1.89,1.89,0,0,0,.2.2l.21.21.21.21.21.21.21.21.21.21a1.89,1.89,0,0,0,.2.2l.21.21.21.21.21.21.06.07c-1.94,11.48-3.43,21.65-4.44,30.22-1.21,10.18-1.91,19.66-2.08,28.17v.2a22,22,0,0,0,4.13,12.88,12.21,12.21,0,0,0,1.14,1.34l.23.23a2.08,2.08,0,0,0,.21.21l.2.21.21.21.21.21.21.2a2.08,2.08,0,0,0,.21.21c.06.08.14.14.2.21l.21.21.21.21.21.21.21.2a2.08,2.08,0,0,0,.21.21c.06.08.14.14.2.21l.21.21.21.21.21.21.21.2a2.08,2.08,0,0,0,.21.21l.2.21.21.21.21.21.21.21.21.2a2.08,2.08,0,0,0,.21.21l.2.21.21.21.21.21.21.21.21.2c.06.08.14.14.2.21l.21.21.21.21.21.21.21.2a2.08,2.08,0,0,0,.21.21c.06.08.14.14.2.21l.21.21.21.21.21.21.21.2a2.08,2.08,0,0,0,.21.21l.2.21.21.21.21.21.21.21.21.2a2.08,2.08,0,0,0,.21.21l.2.21.21.21.21.21.21.21.21.2c.06.08.14.14.2.21l.21.21.21.21.21.21.21.2a2.08,2.08,0,0,0,.21.21c.06.08.14.14.2.21l.21.21.21.21.21.21.21.2a2.08,2.08,0,0,0,.21.21c.06.08.14.14.2.21l.21.21.21.21.21.21.21.2a2.08,2.08,0,0,0,.21.21l.2.21.21.21.21.21.21.21.21.2c.06.08.14.14.2.21l.21.21.21.21.21.21.21.2a2.08,2.08,0,0,0,.21.21c.06.08.14.14.2.21l.21.21.21.21.21.21.21.2a2.08,2.08,0,0,0,.21.21l.2.21.21.21.21.21.21.21.21.2a2.08,2.08,0,0,0,.21.21l.2.21.21.21.21.21.21.21.21.2c.06.08.14.14.2.21l.21.21.21.21.21.21.21.2a2.08,2.08,0,0,0,.21.21c.06.08.14.14.2.21l.21.21.21.21.21.21.21.2a2.08,2.08,0,0,0,.21.21c.06.08.14.14.2.21l.21.21.21.21.21.21.21.2a2.08,2.08,0,0,0,.21.21l.2.21.21.21.21.21.21.21.21.2c.06.08.14.14.2.21l.21.21.21.21.21.21.21.2a2.08,2.08,0,0,0,.21.21c.06.08.14.14.2.21l.21.21.21.21.21.21.21.2a2.08,2.08,0,0,0,.21.21c.06.08.14.14.2.21l.21.21.21.21a2.39,2.39,0,0,0,.23.22,13.26,13.26,0,0,0,9.84,4.17,42.47,42.47,0,0,0,7.25-.78,39.83,39.83,0,0,0,9.15-2.83,30.92,30.92,0,0,0,8.79-5.86,20,20,0,0,0,6-11.66l0-.22,0-.21a69.43,69.43,0,0,0,0-9.46c-.16-3.51-.25-8-.25-13.43s.25-11.47.74-18.36,1.38-14.42,2.67-22.48l.05-.31q.45-3.52,1-7a20.56,20.56,0,0,0,7.5,1.57c.76,0,1.52.06,2.26.06a35.37,35.37,0,0,0,17.4-4.43,52.11,52.11,0,0,0,14.25-11.76,74,74,0,0,0,10-15.36,112.49,112.49,0,0,0,6.48-16.15,108.93,108.93,0,0,0,3.6-15.11,78.38,78.38,0,0,0,1.12-11.45v-.49Zm-261.1-31.79a80,80,0,0,1-13,27.6,69.33,69.33,0,0,1-9,9.84,56.31,56.31,0,0,1-10.8,7.65q1.42-4,3.18-8.56l0-.11a107.76,107.76,0,0,1,5.89-13.17c2.12-3.92,4.16-7.34,6.06-10.16q3.12-4.6,5.36-7.85a40.47,40.47,0,0,0,3.91-6.61,19.24,19.24,0,0,0,1-13.39,29.67,29.67,0,0,0-4.83-9.69,44.15,44.15,0,0,0-4.57-5.19l-.21-.21-.2-.21-.21-.2-.21-.21-.21-.21-.21-.21-.19-.2a75,75,0,0,1,18.41,3.07,52.7,52.7,0,0,1,1.09,6.81A79.77,79.77,0,0,1,216.21,525.43Z" transform="translate(-69.23 -425.04)"/><path class="cls-2" d="M255.63,499.94a77.34,77.34,0,0,0-6.56-23.58,59.35,59.35,0,0,0-11.73-16.77,67.22,67.22,0,0,0-14.75-11.1q-18.15-10.08-43.12-10.84-25.72-.25-45.9,4.54a113.57,113.57,0,0,0-16.89,5.42,59.13,59.13,0,0,0-14.88,8.7,44.89,44.89,0,0,0-10.72,12.48,33.44,33.44,0,0,0-4.16,17,14.08,14.08,0,0,0,.25,2.78c.17.84.38,1.72.63,2.65a10.44,10.44,0,0,0,1.14,2.64,6.79,6.79,0,0,0,4,3.53c1.68.51,3.62-.25,5.8-2.26q3-3.28,9.59-9.08a111,111,0,0,1,16.14-11.6A128.51,128.51,0,0,1,146.81,464a94.78,94.78,0,0,1,28.12-5.42q20.43.51,34.8,8.32a56.91,56.91,0,0,1,11.6,8.45,41.8,41.8,0,0,1,9.2,12.86,53.93,53.93,0,0,1,4.67,18q1,10.35-1.51,24.21a89.44,89.44,0,0,1-14.63,31.27,78.31,78.31,0,0,1-10.21,11.22,66.64,66.64,0,0,1-13.75,9.58A71.29,71.29,0,0,1,177.45,589a83.63,83.63,0,0,1-22.19,1.77,47.22,47.22,0,0,1-16.26-3.4,35.12,35.12,0,0,1-11-7.19,43.69,43.69,0,0,1-5.17-5.55,41.22,41.22,0,0,1-3.41-5,28.23,28.23,0,0,1-2.27-5.3,33.12,33.12,0,0,1-1.13-3.53,22,22,0,0,0-.88-2.77,6.15,6.15,0,0,1-.51-2.27,10,10,0,0,0-4.16-4.79,20.62,20.62,0,0,0-6.43-2.53,34.55,34.55,0,0,0-7.19-.75,21.93,21.93,0,0,0-6.18.75c-2,.51-3.07,1.94-3.15,4.29a26.44,26.44,0,0,0,.38,6.05A48.27,48.27,0,0,0,99,582.4a59.34,59.34,0,0,0,9.33,8.82,62.47,62.47,0,0,0,13.36,7.69,92.63,92.63,0,0,0,18.16,5.55,117.38,117.38,0,0,0,23.7,2.15,113.3,113.3,0,0,0,27.11-3.91,90.48,90.48,0,0,0,21.18-8.83,79.47,79.47,0,0,0,15.89-12.1,104,104,0,0,0,11.47-13.49,100.09,100.09,0,0,0,15.39-36.57Q257.38,513.56,255.63,499.94Z" transform="translate(-69.23 -425.04)"/><path class="cls-2" d="M134.58,570.67c2.19,1.6,5.21,2.57,9.08,2.9a5.31,5.31,0,0,0,1.39-.25c.58-.17,1-.76,1.13-1.77a97.73,97.73,0,0,1,2.9-16,205.2,205.2,0,0,1,7.69-23.07,117.07,117.07,0,0,1,6.43-14.38q3.41-6.3,6.56-11t5.42-7.94a32,32,0,0,0,3-5,9.53,9.53,0,0,0,.5-6.81,19.92,19.92,0,0,0-3.28-6.56,32.84,32.84,0,0,0-4.91-5.29,30,30,0,0,0-4.42-3.28,4,4,0,0,0-3.27-.51,7.15,7.15,0,0,0-2.78,1.77,13.44,13.44,0,0,0-2.77,3.28,116.64,116.64,0,0,0-6.56,12.35q-2.78,6.06-6.43,15t-7.19,20.55A93.52,93.52,0,0,0,133.83,535q-1.28,5-2.78,11.6a114.4,114.4,0,0,0-2.27,13.87V563a5,5,0,0,0,1.26,3.28A17.37,17.37,0,0,0,134.58,570.67Z" transform="translate(-69.23 -425.04)"/><path class="cls-2" d="M335.56,527.67a10.41,10.41,0,0,0,0-3.27,7.86,7.86,0,0,0-1-2.78,30.07,30.07,0,0,0-6.3-5.29,50.27,50.27,0,0,0-5.55-3q-4.54-2.26-10,1a49.35,49.35,0,0,0-11.1,9.71A143.53,143.53,0,0,0,290.3,538.9q-5.69,8.45-10.47,16.51l2.52-7.06q1.26-3.52,2.52-6.8c.34-1,.8-2.27,1.39-3.79s1.22-2.94,1.89-4.28,1.39-2.9,2.15-4.67a13.11,13.11,0,0,1,1.64-3.15.54.54,0,0,1,.12-.38.49.49,0,0,0,.13-.38,12.63,12.63,0,0,0,1.76-5.8,5.5,5.5,0,0,0-.25-1.76,11.64,11.64,0,0,0-.5-1.27,7.8,7.8,0,0,0-.76-1,22.36,22.36,0,0,0-6.68-5.42,28.59,28.59,0,0,0-5.68-2.4,2.51,2.51,0,0,0-2.64.5,6.91,6.91,0,0,0-1.64,2,4.58,4.58,0,0,0-.51,1.26.73.73,0,0,0-.25.51q-1,2.77-2.27,5.8c-.84,1.85-1.73,4-2.65,6.43s-1.81,5-2.65,7.69a6.22,6.22,0,0,0-.62,1.89,6.3,6.3,0,0,1-.64,1.89c-.5,1.51-1.13,3.37-1.89,5.55s-1.55,4.45-2.39,6.81q-1.28,4.29-2.65,9.58t-2.65,11q-1.26,5.67-2.27,11.35A86.78,86.78,0,0,0,253.1,590a2.37,2.37,0,0,0,0,1.51,4.13,4.13,0,0,0,1.26,3,19.72,19.72,0,0,0,4.67,3.78,19,19,0,0,0,7.94,2.27,3.83,3.83,0,0,0,1.39-.37,2.31,2.31,0,0,0,1.13-1.9v-.75a190.7,190.7,0,0,1,12.61-28,218.81,218.81,0,0,1,12.61-20.18,129.69,129.69,0,0,1,13.87-16.64l.5-.25c-1,2.35-2,4.88-3,7.56s-2,5.47-3,8.32a12.7,12.7,0,0,0,.25,2.15,3.68,3.68,0,0,0,2.27,2.39l3.79,1.52c1.67.67,3.36,1.26,5,1.76a16.5,16.5,0,0,0,4.79.76,3.07,3.07,0,0,0,3-1.52q3.27-7.56,6.68-14.12t4.92-8.82A14.08,14.08,0,0,0,335.56,527.67Z" transform="translate(-69.23 -425.04)"/><path class="cls-2" d="M365.32,508.26a28,28,0,0,0,4.28,2.65,11.46,11.46,0,0,0,4.29,1.26,3.75,3.75,0,0,0,3.28-1.39c2.18-2.86,3.91-5.13,5.17-6.81s2.22-3,2.9-4a8.53,8.53,0,0,0,.88-5.93,19,19,0,0,0-2.27-5.93,28.24,28.24,0,0,0-3.78-5,23.48,23.48,0,0,0-3.66-3.28,3.57,3.57,0,0,0-3-.88,7.5,7.5,0,0,0-2.53,1.39,13.88,13.88,0,0,0-2.52,2.77l-1.51,2.27a32.12,32.12,0,0,1-1.89,2.77c-.76,1-1.56,2.19-2.4,3.53a26.53,26.53,0,0,0-2.27,6.44,7.43,7.43,0,0,0,1.77,7.18A19.2,19.2,0,0,0,365.32,508.26Z" transform="translate(-69.23 -425.04)"/><path class="cls-2" d="M444.25,523.26a25.67,25.67,0,0,0-5.05-5.67,28.36,28.36,0,0,0-7.56-4.54,9.06,9.06,0,0,0-6.81.76,31.4,31.4,0,0,0-7.69,5.29,71,71,0,0,0-7.57,8.07q-3.66,4.55-6.68,8.83a31,31,0,0,1,1.26-3.16,32.28,32.28,0,0,0,1.26-3.15c.67-1.34,1.43-2.9,2.27-4.66s1.34-2.81,1.51-3.15a.49.49,0,0,1,.13-.38.54.54,0,0,0,.13-.38,12.63,12.63,0,0,0,1.76-5.8,9,9,0,0,0-.5-2.78l-.51-1-.25-.26a25.78,25.78,0,0,0-6.93-5.42,29,29,0,0,0-5.68-2.39,2.53,2.53,0,0,0-2.65.5,6.13,6.13,0,0,0-1.64,2.27l-.5,1a.73.73,0,0,0-.25.5c-.68,1.86-1.43,3.79-2.27,5.8s-1.73,4-2.65,6.43-1.81,5-2.65,7.69a24.26,24.26,0,0,1-1.26,3.79l-1.89,5.67q-1.14,3.4-2.14,6.94c-.51,1.34-1,2.77-1.39,4.28l-1.39,5c-.12.35-.23.73-.36,1.09a3.43,3.43,0,0,0-.39.92c-1,1.86-2.32,4.25-3.91,7.19a61.58,61.58,0,0,1-5.42,8.32,42.26,42.26,0,0,1-6.18,6.56c-2.11,1.77-4.08,2.31-5.93,1.64-1.68-.51-2.61-1.85-2.77-4a23.81,23.81,0,0,1,1-7.94,82,82,0,0,1,3.53-10.09q2.26-5.41,4.66-10.34t4.42-8.7c1.34-2.52,2.35-4.36,3-5.54a16.83,16.83,0,0,0,1.89-4.8,8.88,8.88,0,0,0,.13-3.27,4.53,4.53,0,0,0-1.26-2.52,29.56,29.56,0,0,0-7.06-6.06,33,33,0,0,0-6.05-3,2.17,2.17,0,0,0-2.27.25,8.68,8.68,0,0,0-1.77,1.76,6.36,6.36,0,0,0-1.51,2.53,265.27,265.27,0,0,0-13.87,35.3q-2,6.81-3.41,13.74a59.38,59.38,0,0,0-1.26,12.74,26.73,26.73,0,0,0,2.15,10.34A12.48,12.48,0,0,0,340.6,596a22.14,22.14,0,0,0,5,1,20.6,20.6,0,0,0,5-.12,13.9,13.9,0,0,0,5.55-2.15,32.12,32.12,0,0,0,8.7-7.43c1.14-1.35,2.24-2.74,3.32-4.16-.06.25-.12.51-.17.75a354.5,354.5,0,0,0-8.7,37.57q-2.89,17.14-4.41,30-1.77,14.88-2,27.24a10.71,10.71,0,0,0,.76,4.28,10.45,10.45,0,0,0,1.51,2.9,3.49,3.49,0,0,0,3,1.39,33.56,33.56,0,0,0,5.54-.63,29.89,29.89,0,0,0,6.94-2.14,21.15,21.15,0,0,0,6.05-4,10.12,10.12,0,0,0,3.15-6,61.67,61.67,0,0,0,0-8.07q-.26-5.55-.25-13.87t.76-19q.75-10.73,2.77-23.32a231.48,231.48,0,0,1,5-27,20,20,0,0,0,3.41,7.7,15.5,15.5,0,0,0,4.41,3.9,11.5,11.5,0,0,0,5.55,1.52,26.07,26.07,0,0,0,14.62-3.16,42.09,42.09,0,0,0,11.61-9.58,63.88,63.88,0,0,0,8.69-13.36,101.35,101.35,0,0,0,5.93-14.76,97.45,97.45,0,0,0,3.28-13.74,69.32,69.32,0,0,0,1-10A16.49,16.49,0,0,0,444.25,523.26Zm-16.9,12.11A86.62,86.62,0,0,1,424.7,548a113.69,113.69,0,0,1-4.79,13.49A127.51,127.51,0,0,1,414,573.7a45.55,45.55,0,0,1-6.05,8.7c-2,2.18-3.7,3.19-5,3a6.45,6.45,0,0,1-4.67-2.77,22.23,22.23,0,0,1-3-5.55,42.18,42.18,0,0,1-1.77-5.93c-.42-1.92-.71-3.31-.88-4.16.17-.67.34-1.34.5-2l.51-2a66.19,66.19,0,0,1,8.83-13.11A153,153,0,0,1,413.48,538q6.56-6.3,13.37-12.1Q428.11,529.45,427.35,535.37Z" transform="translate(-69.23 -425.04)"/><path class="cls-3" d="M247.58,497A77.34,77.34,0,0,0,241,473.41a59.35,59.35,0,0,0-11.73-16.77,67.45,67.45,0,0,0-14.75-11.1q-18.17-10.08-43.12-10.84-25.73-.26-45.9,4.54a113.32,113.32,0,0,0-16.9,5.42,59.25,59.25,0,0,0-14.87,8.7A44.56,44.56,0,0,0,83,465.84a33.34,33.34,0,0,0-4.16,17,14.08,14.08,0,0,0,.25,2.78c.17.84.38,1.72.63,2.65a10.24,10.24,0,0,0,1.14,2.64,6.76,6.76,0,0,0,4,3.53c1.68.51,3.61-.25,5.8-2.26q3-3.29,9.58-9.08a111.5,111.5,0,0,1,16.14-11.6,128.24,128.24,0,0,1,22.32-10.47,94.78,94.78,0,0,1,28.12-5.42q20.42.51,34.8,8.32a57.18,57.18,0,0,1,11.6,8.45,42.13,42.13,0,0,1,9.2,12.86,54.17,54.17,0,0,1,4.67,18q1,10.35-1.52,24.21A89.25,89.25,0,0,1,211,558.77,78.4,78.4,0,0,1,200.8,570a66.57,66.57,0,0,1-13.74,9.58A71.44,71.44,0,0,1,169.41,586a83.71,83.71,0,0,1-22.19,1.77A47.27,47.27,0,0,1,131,584.36a35.16,35.16,0,0,1-11-7.18,44.43,44.43,0,0,1-5.17-5.55,41,41,0,0,1-3.4-5,27.59,27.59,0,0,1-2.27-5.3,33.42,33.42,0,0,1-1.14-3.53,20.52,20.52,0,0,0-.88-2.77,6.11,6.11,0,0,1-.5-2.27,10.1,10.1,0,0,0-4.16-4.8A21,21,0,0,0,96,545.4a34.62,34.62,0,0,0-7.19-.75,21.93,21.93,0,0,0-6.18.75q-3,.76-3.15,4.29a25.88,25.88,0,0,0,.38,6A48.34,48.34,0,0,0,91,579.45a59.34,59.34,0,0,0,9.33,8.82A62.81,62.81,0,0,0,113.68,596a92.73,92.73,0,0,0,18.15,5.55,117.56,117.56,0,0,0,23.71,2.15,113.3,113.3,0,0,0,27.11-3.91,90.48,90.48,0,0,0,21.18-8.83,79.76,79.76,0,0,0,15.89-12.1,104.84,104.84,0,0,0,11.47-13.49,100.07,100.07,0,0,0,15.38-36.57Q249.34,510.61,247.58,497Z" transform="translate(-69.23 -425.04)"/><path class="cls-4" d="M126.54,567.72q3.27,2.4,9.08,2.9a5.32,5.32,0,0,0,1.38-.25q.88-.25,1.14-1.77a96.67,96.67,0,0,1,2.9-16,202.52,202.52,0,0,1,7.69-23.07,117.07,117.07,0,0,1,6.43-14.38q3.41-6.3,6.56-11t5.42-7.94a32.17,32.17,0,0,0,3-5,9.53,9.53,0,0,0,.51-6.81,20.11,20.11,0,0,0-3.28-6.56,32.44,32.44,0,0,0-4.92-5.29,30,30,0,0,0-4.41-3.28,4,4,0,0,0-3.28-.51,7.11,7.11,0,0,0-2.77,1.77,13.47,13.47,0,0,0-2.78,3.28,118.57,118.57,0,0,0-6.55,12.35q-2.77,6.06-6.43,15t-7.19,20.55A93.42,93.42,0,0,0,125.78,532q-1.26,5-2.77,11.6a112.48,112.48,0,0,0-2.27,13.87V560a5,5,0,0,0,1.26,3.28A17.21,17.21,0,0,0,126.54,567.72Z" transform="translate(-69.23 -425.04)"/><path class="cls-4" d="M327.52,524.72a11.05,11.05,0,0,0,0-3.27,8.06,8.06,0,0,0-1-2.78,30.12,30.12,0,0,0-6.31-5.29,49.37,49.37,0,0,0-5.54-3q-4.55-2.27-10,1a49.14,49.14,0,0,0-11.1,9.71A143.55,143.55,0,0,0,282.25,536q-5.67,8.44-10.46,16.51l2.52-7.06q1.26-3.52,2.52-6.81c.34-1,.8-2.27,1.39-3.78s1.22-2.94,1.89-4.28,1.39-2.9,2.14-4.67a13.51,13.51,0,0,1,1.64-3.15.5.5,0,0,1,.13-.38.52.52,0,0,0,.12-.38,12.53,12.53,0,0,0,1.77-5.8,5.79,5.79,0,0,0-.25-1.76,9.79,9.79,0,0,0-.51-1.27,9.18,9.18,0,0,0-.75-1,22.27,22.27,0,0,0-6.69-5.42,28.56,28.56,0,0,0-5.67-2.4,2.53,2.53,0,0,0-2.65.5,7.25,7.25,0,0,0-1.64,2,4.4,4.4,0,0,0-.5,1.26.73.73,0,0,0-.25.51c-.68,1.85-1.43,3.78-2.27,5.8q-1.28,2.77-2.65,6.43t-2.65,7.69a6,6,0,0,0-.63,1.89,6.26,6.26,0,0,1-.63,1.89c-.5,1.51-1.13,3.37-1.89,5.55s-1.56,4.45-2.4,6.81q-1.26,4.29-2.64,9.58t-2.65,11q-1.26,5.67-2.27,11.35A86.78,86.78,0,0,0,245.06,587a2.24,2.24,0,0,0,0,1.51,4.13,4.13,0,0,0,1.26,3,19.9,19.9,0,0,0,4.66,3.78,19,19,0,0,0,8,2.27,3.69,3.69,0,0,0,1.38-.38,2.26,2.26,0,0,0,1.14-1.89v-.75a189.66,189.66,0,0,1,12.61-28,218.81,218.81,0,0,1,12.61-20.18,128.87,128.87,0,0,1,13.87-16.64l.5-.25q-1.52,3.53-3,7.56c-1,2.69-2,5.47-3,8.32a12.7,12.7,0,0,0,.25,2.15,3.65,3.65,0,0,0,2.27,2.39l3.78,1.52q2.52,1,5,1.76a16.74,16.74,0,0,0,4.79.76,3,3,0,0,0,3-1.52q3.28-7.56,6.69-14.12t4.91-8.82A14.13,14.13,0,0,0,327.52,524.72Z" transform="translate(-69.23 -425.04)"/><path class="cls-4" d="M357.27,505.31a28.61,28.61,0,0,0,4.29,2.65,11.4,11.4,0,0,0,4.29,1.26,3.74,3.74,0,0,0,3.27-1.39q3.28-4.29,5.17-6.81c1.26-1.68,2.23-3,2.9-4a8.59,8.59,0,0,0,.89-5.93,19,19,0,0,0-2.27-5.93,28.77,28.77,0,0,0-3.79-5,23.49,23.49,0,0,0-3.65-3.28,3.59,3.59,0,0,0-3-.88,7.56,7.56,0,0,0-2.52,1.39,13.88,13.88,0,0,0-2.52,2.77l-1.52,2.27a30,30,0,0,1-1.89,2.77c-.75,1-1.55,2.19-2.39,3.53a26.17,26.17,0,0,0-2.27,6.43,7.44,7.44,0,0,0,1.76,7.19A19.2,19.2,0,0,0,357.27,505.31Z" transform="translate(-69.23 -425.04)"/><path class="cls-4" d="M436.2,520.31a25.39,25.39,0,0,0-5-5.67,28.42,28.42,0,0,0-7.57-4.54,9.07,9.07,0,0,0-6.81.76,31.59,31.59,0,0,0-7.69,5.29,69.22,69.22,0,0,0-7.56,8.07q-3.66,4.54-6.68,8.83a28.81,28.81,0,0,1,1.26-3.16,32.28,32.28,0,0,0,1.26-3.15c.67-1.34,1.42-2.9,2.27-4.66s1.34-2.82,1.51-3.15a.49.49,0,0,1,.13-.38.54.54,0,0,0,.12-.38,12.53,12.53,0,0,0,1.77-5.8,8.79,8.79,0,0,0-.51-2.78l-.5-1-.25-.26a25.67,25.67,0,0,0-6.94-5.42,29.26,29.26,0,0,0-5.67-2.39,2.53,2.53,0,0,0-2.65.5,6,6,0,0,0-1.64,2.27l-.5,1a.74.74,0,0,0-.26.5c-.67,1.86-1.43,3.79-2.26,5.8q-1.28,2.79-2.65,6.43c-.93,2.44-1.81,5-2.65,7.69a24.26,24.26,0,0,1-1.26,3.79q-.76,2.26-1.89,5.67t-2.15,6.94c-.5,1.34-1,2.77-1.38,4.28s-.89,3.2-1.39,5.05c-.13.35-.24.73-.36,1.09a3.84,3.84,0,0,0-.4.92c-1,1.86-2.31,4.25-3.91,7.19a59.71,59.71,0,0,1-5.42,8.32,41.77,41.77,0,0,1-6.18,6.56q-3.15,2.64-5.92,1.64c-1.68-.51-2.61-1.85-2.78-4a24.35,24.35,0,0,1,1-7.94,82,82,0,0,1,3.53-10.09q2.28-5.42,4.67-10.34c1.6-3.27,3.06-6.17,4.41-8.7s2.35-4.36,3-5.54a16.83,16.83,0,0,0,1.89-4.8,9.11,9.11,0,0,0,.13-3.27,4.54,4.54,0,0,0-1.27-2.52,29.18,29.18,0,0,0-7.06-6.06,33,33,0,0,0-6.05-3,2.17,2.17,0,0,0-2.27.25,8.63,8.63,0,0,0-1.76,1.76,6.38,6.38,0,0,0-1.52,2.53,266.64,266.64,0,0,0-13.87,35.3q-2,6.81-3.4,13.74a59.38,59.38,0,0,0-1.26,12.74A26.91,26.91,0,0,0,326,586.51a12.5,12.5,0,0,0,6.56,6.55,22.05,22.05,0,0,0,5,1,20.68,20.68,0,0,0,5-.12,13.92,13.92,0,0,0,5.54-2.15,31.7,31.7,0,0,0,8.7-7.44c1.14-1.34,2.25-2.73,3.33-4.15-.06.25-.12.51-.17.75a354.5,354.5,0,0,0-8.7,37.57q-2.89,17.15-4.42,30-1.76,14.88-2,27.24a10.9,10.9,0,0,0,.75,4.28,11,11,0,0,0,1.51,2.9,3.51,3.51,0,0,0,3,1.39,33.54,33.54,0,0,0,5.55-.63,29.81,29.81,0,0,0,6.93-2.14,21.34,21.34,0,0,0,6.06-4,10.18,10.18,0,0,0,3.15-6,65.51,65.51,0,0,0,0-8.07q-.25-5.55-.25-13.87t.75-19q.77-10.72,2.78-23.32a229.41,229.41,0,0,1,5-27,19.85,19.85,0,0,0,3.4,7.69A15.42,15.42,0,0,0,388,591.8a11.44,11.44,0,0,0,5.55,1.52,26.09,26.09,0,0,0,14.62-3.16,41.9,41.9,0,0,0,11.6-9.58,64.32,64.32,0,0,0,8.7-13.36,102.49,102.49,0,0,0,5.93-14.76,98.85,98.85,0,0,0,3.28-13.74,69,69,0,0,0,1-10A16.4,16.4,0,0,0,436.2,520.31Zm-16.89,12.11A88,88,0,0,1,416.66,545a113.69,113.69,0,0,1-4.79,13.49,129.93,129.93,0,0,1-5.93,12.23,46,46,0,0,1-6.05,8.7q-3,3.27-5,3a6.42,6.42,0,0,1-4.67-2.77,22.26,22.26,0,0,1-3-5.55,43.48,43.48,0,0,1-1.76-5.93c-.42-1.93-.72-3.31-.88-4.16.16-.67.33-1.34.5-2l.51-2a66.12,66.12,0,0,1,8.82-13.11,153.22,153.22,0,0,1,11.1-11.86q6.56-6.3,13.36-12.1Q420.06,526.5,419.31,532.42Z" transform="translate(-69.23 -425.04)"/><path d="M378.46,718.23a9.38,9.38,0,0,1,.85.82,72.94,72.94,0,0,1,7.44,11.05,28.86,28.86,0,0,1,2.78,7,11.65,11.65,0,1,1-22.84,4.54,13.75,13.75,0,0,1,.82-6.78,42.78,42.78,0,0,1,4.6-8.95,76.89,76.89,0,0,1,5.1-7,5.8,5.8,0,0,1,.73-.67Zm-7,19.51c0-.24,0-.49.05-.74a.47.47,0,0,0-.39-.55.49.49,0,0,0-.58.35l-.3.83a7.06,7.06,0,0,0,.26,5.52,8.09,8.09,0,0,0,9.18,4.08c.27-.07.48-.18.47-.49s-.26-.41-.54-.44a9.18,9.18,0,0,1-3.13-.91A8.52,8.52,0,0,1,371.46,737.74Z" transform="translate(-69.23 -425.04)"/><path class="cls-5" d="M371.46,737.74a8.52,8.52,0,0,0,5,7.65,9.18,9.18,0,0,0,3.13.91c.28,0,.52.12.54.44s-.2.42-.47.49a8.09,8.09,0,0,1-9.18-4.08,7.06,7.06,0,0,1-.26-5.52l.3-.83a.49.49,0,0,1,.58-.35.47.47,0,0,1,.39.55C371.49,737.25,371.48,737.5,371.46,737.74Z" transform="translate(-69.23 -425.04)"/></svg>