<svg id="Layer_1" data-name="Layer 1" xmlns="http://www.w3.org/2000/svg" viewBox="0 0 940.58 326.35"><title>dripftwr</title><g style="isolation:isolate"><path d="M448.68,124.87h36.85v30H448.68v72.76H415.59V51.18h89.89V81.92h-56.8Z" transform="translate(0 -0.02)" style="fill:#fff"/><path d="M605.45,81.92V228.14H573.07V81.92H519.55V51.18h85.9Z" transform="translate(0 -0.02)" style="fill:#fff"/><path d="M620.23,227.2V50.94h32.63V169h.23l40.6-58.68,19.48-28.16,19,28.16L772.55,169H773V50.94h32.62V227.2H776.07l-62.9-89.65L649.81,227.2Z" transform="translate(0 -0.02)" style="fill:#fff"/><path d="M901.63,227.2,862,169.7V135.2h13.38c17.37,0,31.21-8.45,31.21-26.76S892,81.69,875.34,81.69H854.22V227.2H821.83V50.94h54c15.25,0,30.27,2.35,42.48,12.44,13.38,9.86,20.65,25.59,20.65,42.25,0,15-6.1,31.92-16.66,41.77-8.92,8.92-17.37,11.74-29.1,14.56l47.4,65.24Z" transform="translate(0 -0.02)" style="fill:#fff"/></g><path d="M408.08,132.18A26,26,0,0,0,404,118.87a36.27,36.27,0,0,0-5.15-6.18l-.15-.15-.21-.2-.21-.21-.2-.21-.21-.21-.21-.21-.21-.21-.21-.2-.2-.21-.21-.21-.21-.21-.21-.21-.21-.21-.21-.2-.2-.21-.21-.21-.21-.21-.21-.21-.21-.2-.21-.21-.2-.21-.21-.21-.21-.21-.21-.21-.21-.2-.21-.21-.2-.21-.21-.21-.21-.21-.21-.21-.21-.2-.21-.21-.2-.21-.21-.21-.21-.21-.21-.2-.21-.21-.2-.21-.21-.21-.21-.21-.21-.21-.21-.2-.21-.21-.2-.21-.21-.21-.21-.21-.21-.21-.21-.2-.21-.21-.2-.21-.21-.21-.21-.21-.21-.21-.21-.2-.2-.21-.21-.21-.21-.21-.21-.21-.21-.2-.21-.21-.2-.21-.21-.21-.21-.21-.21-.21-.21-.2-.21-.21-.2-.21-.21-.21-.21-.21-.21-.21-.21-.2-.21-.21-.2-.21-.21-.21-.21-.21-.21-.21-.21-.2-.2-.21-.21-.21-.21-.21-.21-.21-.21-.21-.21-.2-.2-.21-.21-.21-.21-.21-.21-.21-.21-.2-.21-.21-.2-.21-.21-.21-.21-.21-.21-.21-.21-.2-.21-.21-.2-.21-.21-.21-.21-.21-.21-.21-.21-.2-.21-.21-.2-.21-.21-.21-.21-.21-.21-.2-.21-.21-.2-.21-.21-.21-.21-.21-.21-.21-.21-.2-.21-.21-.2-.21-.21-.21-.21-.21-.21-.21-.21-.2-.21-.21-.2-.21-.21-.21-.21-.21-.21-.2-.21-.21-.21-.21-.2-.21-.21-.21-.21-.21-.21-.2-.21-.21-.2-.21-.21-.21-.21-.21-.21-.21-.21-.2-.21-.21-.2-.21-.2-.2a23,23,0,0,0-2.24-2,38,38,0,0,0-10.06-6l-.31-.13-.32-.11a16.47,16.47,0,0,0-5.35-.86,20.3,20.3,0,0,0-8.59,2c-.73.35-1.47.73-2.2,1.14l-.11-.11L341,78l-.21-.2-.21-.21-.21-.21-.2-.21-.21-.21-.21-.21-.21-.2-.21-.21-.21-.21-.2-.21-.21-.21A35.11,35.11,0,0,0,331.35,70l-.06-.07-.21-.21-.21-.2-.21-.21-.21-.21-.2-.21-.21-.21-.21-.2-.21-.21-.21-.21-.21-.21-.2-.21-.21-.21-.21-.2-.21-.21-.21-.21-.2-.21-.21-.21-.21-.21-.21-.2-.21-.21-.21-.21-.2-.21-.21-.21-.21-.21-.21-.2-.21-.21-.21-.21-.2-.21-.21-.21-.21-.21-.21-.2-.21-.21-.2-.21-.21-.21-.21-.21-.21-.2-.21-.21-.21-.21-.2-.21-.21-.21-.21-.21-.21-.2-.21-.21-.21-.21-.2-.21-.21-.21-.21-.21-.21-.2-.21-.21-.21-.21-.2-.21-.21-.21-.21-.21-.21-.2-.21-.21-.21-.21-.2-.21-.21-.21-.21-.2-.21-.21-.21-.21-.2-.21-.21-.21-.21-.21-.21-.2-.21-.21-.21-.21-.2-.21-.21-.21-.21-.21-.21-.2-.21-.21-.21-.21-.2-.21-.21-.21-.21-.21-.21-.2L315,53.7l-.21-.21-.2-.21-.21-.21-.21-.2-.21-.21-.21-.21-.2-.21-.21-.21-.21-.21-.21-.2-.21-.21-.21-.21-.2-.21-.21-.21-.21-.21-.21-.2-.21-.21-.21-.21-.2-.21-.21-.21-.21-.21-.21-.2-.21-.21L310,48.7l-.2-.21-.21-.21-.21-.21-.21-.2-.21-.21-.2-.21-.19-.18a28.06,28.06,0,0,0-4-3.38,13.57,13.57,0,0,0-7.9-2.68,11.69,11.69,0,0,0-3.37.49,17.35,17.35,0,0,0-5.79,3.1,23.05,23.05,0,0,0-4.34,4.7l-.09.13-1.74,2.6-.12.21c-.32.52-.76,1.17-1.32,1.92-.92,1.23-1.89,2.64-2.87,4.22l-.12.19-.12.21a35.75,35.75,0,0,0-3.22,8.86,17.72,17.72,0,0,0-.16,8,11.59,11.59,0,0,0-2.79,1.56,18.51,18.51,0,0,0-3.31,3.19,16,16,0,0,0-3.13,5.15c-.14.29-.26.58-.4.87a39.12,39.12,0,0,0-7.8-6.42,57.55,57.55,0,0,0-6.5-3.54,17.92,17.92,0,0,0-8-1.85,21.3,21.3,0,0,0-11.09,3.33,47.91,47.91,0,0,0-6.15,4.46l-.2-.2c-.07-.06-.13-.14-.21-.2l-.1-.23-.21-.21-.21-.21-.21-.21-.21-.21-.2-.2-.21-.21-.21-.21-.21-.21-.21-.21-.2-.2-.17-.17A32,32,0,0,0,213,73.13c-1.72-.88-3.22-1.58-4.58-2.12a67.83,67.83,0,0,0-12.62-17.35l-.08-.07-.13-.14-.08-.07-.13-.14-.08-.07-.13-.13-.08-.08-.13-.13-.08-.08-.12-.13-.08-.08a.8.8,0,0,1-.13-.13l-.08-.07-.13-.14-.08-.07L194.1,52l-.08-.07-.13-.13-.08-.08-.13-.13-.07-.08-.13-.13-.08-.08a.8.8,0,0,1-.13-.13l-.08-.07-.13-.14-.08-.07-.13-.14-.08-.07-.13-.13-.08-.08-.13-.13-.07-.08-.13-.13-.08-.07-.13-.14-.08-.07-.13-.14-.08-.07-.13-.14-.08-.07-.13-.13-.08-.08-.13-.13-.07-.08-.13-.13-.08-.07-.13-.14-.08-.07-.13-.14-.08-.07a.8.8,0,0,0-.13-.13.3.3,0,0,0-.08-.08l-.13-.13-.07-.08-.13-.13-.08-.07-.13-.14-.08-.07-.13-.14-.08-.07-.13-.14-.08-.07a.8.8,0,0,0-.13-.13.3.3,0,0,0-.08-.08l-.13-.13-.07-.08-.13-.13-.08-.08-.13-.13-.08-.07-.13-.14-.08-.07-.13-.14-.08-.07a.8.8,0,0,0-.13-.13.3.3,0,0,0-.08-.08l-.13-.13-.07-.08-.13-.13-.08-.07-.13-.14-.08-.07-.13-.14-.08-.07-.13-.14-.08-.07a.8.8,0,0,0-.13-.13l-.08-.08-.12-.13-.08-.08-.13-.13-.08-.07-.13-.14-.08-.07-.13-.14-.08-.07-.13-.13-.08-.08a.8.8,0,0,0-.13-.13l-.07-.08a.8.8,0,0,1-.13-.13l-.08-.08-.13-.13-.08-.07-.13-.14-.08-.07-.13-.14-.08-.07-.13-.13-.08-.08a.8.8,0,0,0-.13-.13l-.07-.08a.8.8,0,0,1-.13-.13l-.08-.08-.13-.13-.08-.07-.13-.14-.08-.07-.13-.14-.08-.07-.13-.13-.08-.08a.8.8,0,0,0-.13-.13l-.07-.08a.8.8,0,0,1-.13-.13l-.08-.07-.13-.14-.08-.07-.13-.14-.08-.07-.13-.14-.08-.07-.13-.13-.08-.08a.8.8,0,0,0-.13-.13l-.07-.08a.8.8,0,0,1-.13-.13l-.08-.07-.13-.14-.08-.07-.13-.14-.08-.07-.13-.13-.08-.08-.13-.13-.08-.08-.12-.13-.08-.08a.8.8,0,0,1-.13-.13l-.08-.07-.13-.14-.08-.07-.13-.14-.08-.07-.13-.13-.08-.08-.13-.13-.07-.08-.13-.13-.08-.07-.13-.14-.08-.07-.13-.14-.08-.07-.13-.14-.08-.07-.13-.13-.08-.08-.13-.13-.07-.08-.13-.13-.08-.07-.13-.14-.08-.07-.13-.14-.08-.07-.13-.14-.08-.07-.13-.13-.08-.08-.13-.13-.07-.08-.13-.13-.08-.07-.13-.14-.08-.07-.13-.14-.08-.07-.13-.13-.08-.08-.13-.13-.07-.08-.13-.13-.08-.08-.13-.13-.08-.07-.13-.14-.08-.07-.13-.14-.08-.07-.13-.13-.08-.08-.13-.13-.07-.08-.13-.13-.08-.08-.13-.13-.08-.07-.13-.14-.08-.07-.13-.14-.08-.07a.8.8,0,0,0-.13-.13l-.08-.08-.13-.13-.07-.08-.13-.13-.08-.07-.13-.14-.08-.07-.13-.14-.08-.07-.13-.14-.08-.07a.8.8,0,0,0-.13-.13l-.08-.08-.13-.13-.07-.08-.13-.13-.08-.07-.13-.14-.08-.07-.13-.14-.08-.07a.8.8,0,0,0-.13-.13l-.08-.08a.8.8,0,0,0-.13-.13l-.07-.08-.13-.13-.08-.08-.13-.13-.08-.07-.13-.14-.08-.07-.13-.14-.08-.07-.13-.13-.08-.08a.8.8,0,0,0-.13-.13l-.08-.08-.12-.13-.08-.08-.13-.13-.08-.07-.13-.14-.08-.07-.13-.14-.08-.07-.13-.13-.08-.08a.8.8,0,0,0-.13-.13l-.07-.08-.13-.13-.08-.07-.13-.14-.08-.07-.13-.14-.08-.07-.13-.14-.08-.07-.13-.13-.08-.08a.8.8,0,0,0-.13-.13l-.07-.08-.13-.13-.08-.07-.13-.14A77.19,77.19,0,0,0,150,12.07C136.58,4.62,120.59.56,102.48,0H99.67C82.87,0,67.53,1.64,54.09,4.83a122.43,122.43,0,0,0-18.32,5.86,68.73,68.73,0,0,0-17.3,10.12A54.48,54.48,0,0,0,5.47,36,43,43,0,0,0,0,57.82a24.06,24.06,0,0,0,.43,4.64c.21,1,.47,2.13.79,3.32A20.39,20.39,0,0,0,3.3,70.69,17.54,17.54,0,0,0,7,75.33H7l.21.21.21.21.2.2.21.21.21.21.21.21.21.21.21.21.2.2.21.21.21.21.21.21.21.21.2.21.21.2.21.21.21.21.21.21.21.21c.07.07.13.14.2.2l.21.21.21.21.21.21.21.21.21.21a1.89,1.89,0,0,0,.2.2l.21.21.21.21.21.21.21.21.21.21a1.89,1.89,0,0,0,.2.2l.21.21.21.21.21.21.21.21.2.21.21.2.21.21.21.21.21.21.21.21.2.21.21.2.21.21.21.21.21.21.21.21.2.2c.07.08.14.14.21.21l.21.21.21.21.21.21.21.21.2.2c.07.08.14.14.21.21l.21.21.21.21.21.21.2.21.21.2.21.21.21.21.21.21.21.21.2.21.21.2.21.21.21.21.21.21.21.21.2.2.21.21.21.21.21.21.21.21.21.21.2.2.21.21.21.21.21.21.21.21.2.21.21.2.21.21.21.21.21.21.21.21.2.21.21.2.21.21.21.21.21.21.21.21.2.2.21.21.21.21.21.21.21.21.21.21.2.2.21.21.21.21.21.21.21.21.2.21.21.2.21.21.21.21.21.21.21.21.2.21.21.2.21.21.21.21.21.21.21.21.2.21.21.2.21.21.21.21.21.21.21.21.2.2.21.21.21.21.21.21.21.21.2.21.21.2.21.21.21.21.11.11a15.65,15.65,0,0,0,7.29,4.67,12.71,12.71,0,0,0,3.82.56h.64c-.6,2.48-1.24,5.21-2,8.29-.23,1-.43,2-.63,2.93l-.16-.15-.21-.21-.21-.21-.2-.21-.21-.21-.21-.2a20.1,20.1,0,0,0-4.32-3.53,30.29,30.29,0,0,0-9.4-3.7,43.79,43.79,0,0,0-9.2-1,30.84,30.84,0,0,0-8.76,1.11C4.73,112.69.81,117.74.6,124.3a35.34,35.34,0,0,0,.53,8.15,57.94,57.94,0,0,0,13.21,28.18,61.46,61.46,0,0,0,4.19,4.5l.15.16.21.21.21.21.21.2.21.21.2.21.21.21.21.21.21.2.21.21.21.21.21.21.2.21.21.21.21.2.21.21.21.21.2.21.21.21.21.21.21.2.21.21.2.21.21.21.21.21.21.21.21.2.21.21.21.21.2.21.21.21.21.2.21.21.21.21.21.21.2.21.21.21.21.2.21.21.21.21.2.21.21.21.21.21.21.2.21.21.21.21.2.21.21.21.21.2.21.21.21.21.21.21.2.21.21.21.21.2.21.21.21.21.2.21.21.21.21.21.21.2.21.21.21.21.2.21.21.21.21.2.21.21.21.21.21.21.2.21.21.21.21.21.21.2.21.21.2.21.21.21.21.21.21.2.21.21.21.21.21.21.2.21.21.21.21.2.21.21.21.21.2.21.21.21.21.21.21.2.21.21.21.21.2.21.21.21.21.21.21.2.21.21.21.21.2.21.21.21.21.2.21.21.21.21.21.21.2.21.21.21.21.2.21.21.21.21.2.21.21.21.21.21.21.2.21.21.21.21.2.21.21.21.21.21.21.2.21.21.21.21.2.21.21.21.21.2.21.21.21.21.2.21.21.21.21.21.21.2.21.21.21.21.2.21.18.17a74.21,74.21,0,0,0,7.74,6.87,72.34,72.34,0,0,0,15.41,8.9,102.68,102.68,0,0,0,20.06,6.15,127.7,127.7,0,0,0,25.66,2.34h.32A123.37,123.37,0,0,0,145,213a100.19,100.19,0,0,0,23.44-9.8,88.54,88.54,0,0,0,17.81-13.6l.1-.1.1.09.21.21.21.21.2.21.21.21.21.2.21.21.21.21.2.21.21.21.21.21.21.2.21.21.21.21.2.21.21.21.21.21.21.2.21.21.21.21.2.21.21.21.21.2.21.21.21.21.21.21.2.21.21.21.21.2.21.21.21.21.2.21.21.21.21.21.21.2.21.21.21.21.2.21.21.21.21.21.21.2.21.21.21.21.2.21.21.21.21.21.21.2.21.21.21.21.2.21.21.21.21.2.21.21.21.21.2.21.21.21.21.21.21.2.21.21.21.21.2.21.21.21.21.21.11.11a31.12,31.12,0,0,0,6.21,4.93,28.08,28.08,0,0,0,12,3.62l.48.05h.49a13,13,0,0,0,5.18-1.16,11.74,11.74,0,0,0,6.85-9.17l.09-.49a178.57,178.57,0,0,1,11.42-25.12q3-5.31,5.77-9.82a22.46,22.46,0,0,0,4.75,6.89l.21.21.21.21.21.21.21.21.2.21.21.2.21.21.21.21.21.21.21.21.2.21.21.2.21.21.21.21.21.21.21.21.2.2.21.21.21.21.21.21.21.21.21.21.2.2.21.21.21.21.21.21.21.21.2.21.21.2.21.21.21.21.21.21.21.21.2.21.21.2.21.21.21.21.21.21.21.21.2.2.21.21.21.21.21.21.21.21.2.21.21.2.21.21.21.21.21.21.21.21.2.21.21.2.21.21.21.21.21.21.21.21.2.21.21.2.21.21.21.21.21.21.21.21.2.2.21.21.21.21.21.21.21.21.21.21.2.2.21.21.21.21.21.21.21.21.2.21.21.2.21.21.21.21.21.21.21.21.2.21.21.2.21.21.21.21.21.21.21.21.2.2.21.21.21.21.21.21.21.21.21.21.2.2.21.21.21.21.21.21.06.07c-1.94,11.48-3.43,21.65-4.44,30.22-1.21,10.18-1.91,19.66-2.08,28.17v.2a22,22,0,0,0,4.13,12.88,12.21,12.21,0,0,0,1.14,1.34l.23.23a1,1,0,0,0,.21.21l.2.21.21.21.21.21.21.2a1,1,0,0,0,.21.21c.06.08.14.14.2.21l.21.21.21.21.21.21.21.2a1,1,0,0,0,.21.21c.06.08.14.14.2.21l.21.21.21.21.21.21.21.2a1,1,0,0,0,.21.21l.2.21.21.21.21.21.21.21.21.2a1,1,0,0,0,.21.21l.2.21.21.21.21.21.21.21.21.2c.06.08.14.14.2.21l.21.21.21.21.21.21.21.2a1,1,0,0,0,.21.21c.06.08.14.14.2.21l.21.21.21.21.21.21.21.2a1,1,0,0,0,.21.21l.2.21.21.21.21.21.21.21.21.2a1,1,0,0,0,.21.21l.2.21.21.21.21.21.21.21.21.2c.06.08.14.14.2.21l.21.21.21.21.21.21.21.2a1,1,0,0,0,.21.21c.06.08.14.14.2.21l.21.21.21.21.21.21.21.2a1,1,0,0,0,.21.21c.06.08.14.14.2.21l.21.21.21.21.21.21.21.2a1,1,0,0,0,.21.21l.2.21.21.21.21.21.21.21.21.2c.06.08.14.14.2.21l.21.21.21.21.21.21.21.2a1,1,0,0,0,.21.21c.06.08.14.14.2.21l.21.21.21.21.21.22.21.2a2.08,2.08,0,0,0,.21.21l.2.21.21.21.21.21.21.21.21.2a2.08,2.08,0,0,0,.21.21l.2.21.21.21.21.21.21.21.21.2c.06.08.14.14.2.21l.21.21.21.21.21.21.21.2.21.21c.06.08.14.14.2.21l.21.21.21.21.21.21.21.2.21.21c.06.08.14.14.2.21l.21.21.21.21.21.21.21.2.21.21.2.21.21.21.21.21.21.21.21.2c.06.08.14.14.2.21l.21.21.21.21.21.21.21.2.21.21c.06.08.14.14.2.21l.21.21.21.21.21.21.21.2.21.21c.06.08.14.14.2.21l.21.21.21.21.23.22a13.3,13.3,0,0,0,9.84,4.17,44.17,44.17,0,0,0,7.25-.78,40.76,40.76,0,0,0,9.15-2.83,31.13,31.13,0,0,0,8.79-5.86,20,20,0,0,0,6-11.66v-.43a71.1,71.1,0,0,0,0-9.46c-.16-3.51-.25-8-.25-13.43s.25-11.47.74-18.36,1.38-14.42,2.67-22.48l0-.31q.45-3.53,1-7a20.75,20.75,0,0,0,7.5,1.57c.76,0,1.52.06,2.26.06a35.52,35.52,0,0,0,17.4-4.43,52.26,52.26,0,0,0,14.25-11.76,74.36,74.36,0,0,0,10-15.36,113.18,113.18,0,0,0,6.48-16.15,109.19,109.19,0,0,0,3.6-15.11A78.72,78.72,0,0,0,408,132.71v-.49ZM147,100.39A80,80,0,0,1,134,128a69.38,69.38,0,0,1-9,9.84,56.31,56.31,0,0,1-10.8,7.65q1.42-4,3.18-8.56v-.11a107.05,107.05,0,0,1,5.89-13.17c2.12-3.92,4.16-7.34,6.06-10.16q3.12-4.61,5.36-7.85A40.32,40.32,0,0,0,138.58,99a19.22,19.22,0,0,0,1-13.39,29.67,29.67,0,0,0-4.83-9.69,44.19,44.19,0,0,0-4.57-5.19l-.21-.21-.2-.21-.21-.2-.21-.21-.21-.21-.21-.21-.19-.2a74.64,74.64,0,0,1,18.41,3.07,52.19,52.19,0,0,1,1.09,6.81A79.84,79.84,0,0,1,147,100.39Z" transform="translate(0 -0.02)"/><path d="M186.4,74.9a77.4,77.4,0,0,0-6.56-23.58,59.37,59.37,0,0,0-11.73-16.77,67.14,67.14,0,0,0-14.75-11.1q-18.15-10.08-43.12-10.84-25.72-.25-45.9,4.54a113.75,113.75,0,0,0-16.89,5.42,59.24,59.24,0,0,0-14.88,8.7A44.86,44.86,0,0,0,21.85,43.75a33.42,33.42,0,0,0-4.16,17,13.69,13.69,0,0,0,.25,2.78c.17.84.38,1.72.63,2.65a10.49,10.49,0,0,0,1.14,2.64,6.8,6.8,0,0,0,4,3.53c1.68.51,3.62-.25,5.8-2.26q3-3.28,9.59-9.08a111.06,111.06,0,0,1,16.14-11.6A128.69,128.69,0,0,1,77.58,39a94.73,94.73,0,0,1,28.12-5.42q20.43.51,34.8,8.32a57.06,57.06,0,0,1,11.6,8.45,41.75,41.75,0,0,1,9.2,12.86,53.74,53.74,0,0,1,4.67,18q1,10.35-1.51,24.21a89.47,89.47,0,0,1-14.63,31.27,78.13,78.13,0,0,1-10.21,11.22,66.43,66.43,0,0,1-13.75,9.58A71.19,71.19,0,0,1,108.22,164,83.52,83.52,0,0,1,86,165.73a47,47,0,0,1-16.26-3.4,35,35,0,0,1-11-7.19,43.8,43.8,0,0,1-5.17-5.55,40.44,40.44,0,0,1-3.41-5,27.56,27.56,0,0,1-2.27-5.3,33,33,0,0,1-1.13-3.53,22.29,22.29,0,0,0-.88-2.77,6.15,6.15,0,0,1-.51-2.27,10,10,0,0,0-4.16-4.79,20.75,20.75,0,0,0-6.43-2.53,34.69,34.69,0,0,0-7.19-.75,21.81,21.81,0,0,0-6.18.75c-2,.51-3.07,1.94-3.15,4.29a26.13,26.13,0,0,0,.38,6.05,48.24,48.24,0,0,0,11.1,23.62,59,59,0,0,0,9.33,8.82,62.3,62.3,0,0,0,13.36,7.69,92.24,92.24,0,0,0,18.16,5.55,117.11,117.11,0,0,0,23.7,2.15,113.48,113.48,0,0,0,27.11-3.91,90.38,90.38,0,0,0,21.18-8.83,79.56,79.56,0,0,0,15.89-12.1A103.91,103.91,0,0,0,170,143.24a100.13,100.13,0,0,0,15.39-36.57Q188.15,88.52,186.4,74.9Z" transform="translate(0 -0.02)" style="fill:#00f9ff"/><path d="M65.35,145.63c2.19,1.6,5.21,2.57,9.08,2.9a5.49,5.49,0,0,0,1.39-.25c.58-.17,1-.76,1.13-1.77a97.64,97.64,0,0,1,2.9-16,205.23,205.23,0,0,1,7.69-23.07A117.85,117.85,0,0,1,94,93.06q3.41-6.3,6.56-11T106,74.12a32.46,32.46,0,0,0,3-5,9.54,9.54,0,0,0,.5-6.81,19.92,19.92,0,0,0-3.28-6.56,32.82,32.82,0,0,0-4.91-5.29,30.12,30.12,0,0,0-4.42-3.28,4,4,0,0,0-3.27-.51,7.23,7.23,0,0,0-2.78,1.77A13.6,13.6,0,0,0,88,51.72a117.62,117.62,0,0,0-6.56,12.35q-2.77,6.06-6.43,15T67.84,99.62A93.14,93.14,0,0,0,64.6,110q-1.27,5-2.78,11.6a113.89,113.89,0,0,0-2.27,13.87V138a5,5,0,0,0,1.26,3.28A17.24,17.24,0,0,0,65.35,145.63Z" transform="translate(0 -0.02)" style="fill:#00f9ff"/><path d="M266.33,102.63a10.55,10.55,0,0,0,0-3.27,7.74,7.74,0,0,0-1-2.78,30.41,30.41,0,0,0-6.3-5.29,49.52,49.52,0,0,0-5.55-3q-4.54-2.27-10,1A49.24,49.24,0,0,0,232.38,99a143,143,0,0,0-11.31,14.86q-5.69,8.44-10.47,16.51l2.52-7.06c.84-2.35,1.68-4.61,2.52-6.8.34-1,.8-2.27,1.39-3.79s1.22-2.94,1.89-4.28,1.39-2.9,2.15-4.67a12.94,12.94,0,0,1,1.64-3.15.53.53,0,0,1,.12-.38.48.48,0,0,0,.13-.38,12.63,12.63,0,0,0,1.76-5.8,5.51,5.51,0,0,0-.25-1.76A11.54,11.54,0,0,0,224,91a8.23,8.23,0,0,0-.76-1,22.33,22.33,0,0,0-6.68-5.42,28.64,28.64,0,0,0-5.68-2.4,2.51,2.51,0,0,0-2.64.5,7,7,0,0,0-1.64,2,4.76,4.76,0,0,0-.51,1.26.72.72,0,0,0-.25.51c-.67,1.85-1.42,3.78-2.27,5.8-.84,1.85-1.73,4-2.65,6.43s-1.81,5-2.65,7.69a6,6,0,0,0-.62,1.89,6.3,6.3,0,0,1-.64,1.89c-.5,1.51-1.13,3.37-1.89,5.55s-1.55,4.45-2.39,6.81q-1.27,4.29-2.65,9.58t-2.65,11q-1.26,5.67-2.27,11.35A88.05,88.05,0,0,0,183.87,165a2.44,2.44,0,0,0,0,1.51,4.14,4.14,0,0,0,1.26,3,19.57,19.57,0,0,0,4.67,3.78,19.07,19.07,0,0,0,7.94,2.27,3.78,3.78,0,0,0,1.39-.37,2.33,2.33,0,0,0,1.13-1.9v-.75a190.12,190.12,0,0,1,12.61-28,216.79,216.79,0,0,1,12.61-20.18,129.78,129.78,0,0,1,13.87-16.64l.5-.25c-1,2.35-2,4.88-3,7.56s-2,5.47-3,8.32a13,13,0,0,0,.25,2.15,3.68,3.68,0,0,0,2.27,2.39l3.79,1.52c1.67.67,3.36,1.26,5,1.76a16.54,16.54,0,0,0,4.79.76,3.08,3.08,0,0,0,3-1.52q3.27-7.56,6.68-14.12t4.92-8.82A14.2,14.2,0,0,0,266.33,102.63Z" transform="translate(0 -0.02)" style="fill:#00f9ff"/><path d="M296.09,83.22a27.73,27.73,0,0,0,4.28,2.65,11.32,11.32,0,0,0,4.29,1.26,3.74,3.74,0,0,0,3.28-1.39c2.18-2.86,3.91-5.13,5.17-6.81s2.22-3,2.9-4a8.56,8.56,0,0,0,.88-5.93,19.17,19.17,0,0,0-2.27-5.93,28.31,28.31,0,0,0-3.78-5,23.26,23.26,0,0,0-3.66-3.28,3.58,3.58,0,0,0-3-.88,7.63,7.63,0,0,0-2.53,1.39,14.1,14.1,0,0,0-2.52,2.77l-1.51,2.27a30.73,30.73,0,0,1-1.89,2.77c-.76,1-1.56,2.19-2.4,3.53a26.67,26.67,0,0,0-2.27,6.44,7.43,7.43,0,0,0,1.77,7.18A19.09,19.09,0,0,0,296.09,83.22Z" transform="translate(0 -0.02)" style="fill:#00f9ff"/><path d="M375,98.22a25.49,25.49,0,0,0-5-5.67A28.37,28.37,0,0,0,362.41,88a9,9,0,0,0-6.81.76,31.43,31.43,0,0,0-7.69,5.29,71.31,71.31,0,0,0-7.57,8.07q-3.66,4.55-6.68,8.83a29.7,29.7,0,0,1,1.26-3.16,32.82,32.82,0,0,0,1.26-3.15c.67-1.34,1.43-2.9,2.27-4.66s1.34-2.81,1.51-3.15a.48.48,0,0,1,.13-.38.53.53,0,0,0,.13-.38,12.63,12.63,0,0,0,1.76-5.8,9,9,0,0,0-.5-2.78l-.51-1-.25-.26a25.88,25.88,0,0,0-6.93-5.42,28.6,28.6,0,0,0-5.68-2.39,2.53,2.53,0,0,0-2.65.5,6.16,6.16,0,0,0-1.64,2.27l-.5,1a.71.71,0,0,0-.25.5c-.68,1.86-1.43,3.79-2.27,5.8s-1.73,4-2.65,6.43-1.81,5-2.65,7.69a25.14,25.14,0,0,1-1.26,3.79l-1.89,5.67q-1.14,3.4-2.14,6.94a40.52,40.52,0,0,0-1.39,4.28l-1.39,5c-.12.35-.23.73-.36,1.09a3.54,3.54,0,0,0-.39.92c-1,1.86-2.32,4.25-3.91,7.19a61.49,61.49,0,0,1-5.42,8.32,42.18,42.18,0,0,1-6.18,6.56c-2.11,1.77-4.08,2.31-5.93,1.64-1.68-.51-2.61-1.85-2.77-4a23.71,23.71,0,0,1,1-7.94A83.12,83.12,0,0,1,287,132q2.26-5.42,4.66-10.34t4.42-8.7c1.34-2.52,2.35-4.36,3-5.54a16.86,16.86,0,0,0,1.89-4.8,8.77,8.77,0,0,0,.13-3.27,4.5,4.5,0,0,0-1.26-2.52,29.45,29.45,0,0,0-7.06-6.06,33.41,33.41,0,0,0-6-3,2.17,2.17,0,0,0-2.27.25,8.68,8.68,0,0,0-1.77,1.76,6.41,6.41,0,0,0-1.51,2.53,266,266,0,0,0-13.87,35.3q-2,6.81-3.41,13.74a59.27,59.27,0,0,0-1.26,12.74,26.63,26.63,0,0,0,2.15,10.34,12.49,12.49,0,0,0,6.58,6.54,22.39,22.39,0,0,0,5,1,20.91,20.91,0,0,0,5-.12,13.92,13.92,0,0,0,5.55-2.15,32.13,32.13,0,0,0,8.7-7.43c1.14-1.35,2.24-2.74,3.32-4.16-.06.25-.12.51-.17.75a355.66,355.66,0,0,0-8.7,37.57q-2.9,17.15-4.41,30-1.77,14.88-2,27.24a10.81,10.81,0,0,0,.76,4.28,10.54,10.54,0,0,0,1.51,2.9,3.48,3.48,0,0,0,3,1.39,34.43,34.43,0,0,0,5.54-.63,30.15,30.15,0,0,0,6.94-2.14,21.09,21.09,0,0,0,6-4,10.13,10.13,0,0,0,3.15-6,60.37,60.37,0,0,0,0-8.07q-.25-5.55-.25-13.87t.76-19q.75-10.72,2.77-23.32a231.1,231.1,0,0,1,5-27,20.07,20.07,0,0,0,3.41,7.7,15.53,15.53,0,0,0,4.41,3.9,11.5,11.5,0,0,0,5.55,1.52,26,26,0,0,0,14.62-3.16,42,42,0,0,0,11.61-9.58,64,64,0,0,0,8.69-13.36,101.76,101.76,0,0,0,5.93-14.76,98.07,98.07,0,0,0,3.28-13.74,69.85,69.85,0,0,0,1-10A16.44,16.44,0,0,0,375,98.22Zm-16.9,12.11A86.42,86.42,0,0,1,355.47,123a113.19,113.19,0,0,1-4.79,13.49,125.9,125.9,0,0,1-5.91,12.21,45.13,45.13,0,0,1-6,8.7c-2,2.18-3.7,3.19-5,3a6.42,6.42,0,0,1-4.67-2.77,22.25,22.25,0,0,1-3-5.55,42.1,42.1,0,0,1-1.77-5.93c-.42-1.92-.71-3.31-.88-4.16.17-.67.34-1.34.5-2l.51-2a65.94,65.94,0,0,1,8.83-13.11,152.69,152.69,0,0,1,11-11.88q6.56-6.3,13.37-12.1C358.46,103.23,358.63,106.38,358.12,110.33Z" transform="translate(0 -0.02)" style="fill:#00f9ff"/><path d="M178.35,72a77.5,77.5,0,0,0-6.58-23.59A59.37,59.37,0,0,0,160,31.6a67.45,67.45,0,0,0-14.75-11.1Q127.13,10.42,102.17,9.66q-25.73-.25-45.9,4.54a112.34,112.34,0,0,0-16.9,5.42,59.35,59.35,0,0,0-14.87,8.7A44.59,44.59,0,0,0,13.77,40.8a33.32,33.32,0,0,0-4.16,17,13.69,13.69,0,0,0,.25,2.78c.17.84.38,1.72.63,2.65a10.14,10.14,0,0,0,1.14,2.64,6.74,6.74,0,0,0,4,3.53c1.68.51,3.61-.25,5.8-2.26A130.9,130.9,0,0,1,31,58.06a111.61,111.61,0,0,1,16.14-11.6A128.59,128.59,0,0,1,69.47,36a94.73,94.73,0,0,1,28.12-5.42q20.41.51,34.8,8.32A57.34,57.34,0,0,1,144,47.34a42.2,42.2,0,0,1,9.2,12.86,54.35,54.35,0,0,1,4.67,18q1,10.35-1.52,24.21a89.22,89.22,0,0,1-14.57,31.32A78.14,78.14,0,0,1,131.57,145a66.37,66.37,0,0,1-13.74,9.58A71.25,71.25,0,0,1,100.18,161,83.52,83.52,0,0,1,78,162.73a47.24,47.24,0,0,1-16.22-3.41,35.11,35.11,0,0,1-11-7.18,44.49,44.49,0,0,1-5.17-5.55,41.5,41.5,0,0,1-3.4-5,27.56,27.56,0,0,1-2.27-5.3,30.9,30.9,0,0,1-1.14-3.53,20.73,20.73,0,0,0-.88-2.77,6.14,6.14,0,0,1-.5-2.27,10,10,0,0,0-4.16-4.8,21,21,0,0,0-6.48-2.56,34.69,34.69,0,0,0-7.19-.75,21.81,21.81,0,0,0-6.18.75q-3,.77-3.15,4.29a25.67,25.67,0,0,0,.38,6,48.33,48.33,0,0,0,11.14,23.76,59,59,0,0,0,9.33,8.82A62.82,62.82,0,0,0,44.45,171a92.15,92.15,0,0,0,18.15,5.55,117.14,117.14,0,0,0,23.71,2.15,113.48,113.48,0,0,0,27.11-3.91,90.38,90.38,0,0,0,21.18-8.83,79.93,79.93,0,0,0,15.89-12.1A105.38,105.38,0,0,0,162,140.33a99.94,99.94,0,0,0,15.38-36.57Q180.12,85.57,178.35,72Z" transform="translate(0 -0.02)" style="fill:#fff;stroke:#000;stroke-linejoin:round;stroke-width:6.019999980926514px"/><path d="M57.31,142.68q3.27,2.4,9.08,2.9a5.41,5.41,0,0,0,1.38-.25q.89-.26,1.14-1.77a97.45,97.45,0,0,1,2.9-16,203.23,203.23,0,0,1,7.69-23.07,117.85,117.85,0,0,1,6.43-14.38q3.41-6.3,6.56-11t5.42-7.94a32.46,32.46,0,0,0,3-5,9.49,9.49,0,0,0,.51-6.81,20,20,0,0,0-3.28-6.56,32.46,32.46,0,0,0-4.92-5.29,30,30,0,0,0-4.41-3.28,4,4,0,0,0-3.28-.51,7.12,7.12,0,0,0-2.77,1.77A13.45,13.45,0,0,0,80,48.77a119.44,119.44,0,0,0-6.55,12.35q-2.78,6.06-6.43,15T59.81,96.67A94.56,94.56,0,0,0,56.55,107q-1.26,5-2.77,11.6a112,112,0,0,0-2.27,13.87V135a5,5,0,0,0,1.26,3.28A17.12,17.12,0,0,0,57.31,142.68Z" transform="translate(0 -0.02)" style="fill:#fff;stroke:#000;stroke-linejoin:round;stroke-width:7.71999979019165px"/><path d="M258.29,99.68a11.2,11.2,0,0,0,0-3.27,8.14,8.14,0,0,0-1-2.78A30.21,30.21,0,0,0,251,88.34a48.52,48.52,0,0,0-5.54-3q-4.55-2.27-10,1a49,49,0,0,0-11.1,9.71A143.66,143.66,0,0,0,213,111q-5.67,8.45-10.46,16.51l2.52-7.06q1.26-3.52,2.52-6.81c.34-1,.8-2.27,1.39-3.78s1.22-2.94,1.89-4.28,1.39-2.9,2.14-4.67a13.67,13.67,0,0,1,1.64-3.15.52.52,0,0,1,.13-.38.53.53,0,0,0,.12-.38,12.53,12.53,0,0,0,1.77-5.8,5.81,5.81,0,0,0-.25-1.76,9.9,9.9,0,0,0-.51-1.27,10.43,10.43,0,0,0-.75-1,22.34,22.34,0,0,0-6.69-5.42,28.55,28.55,0,0,0-5.67-2.4,2.53,2.53,0,0,0-2.65.5,7.2,7.2,0,0,0-1.64,2,4.42,4.42,0,0,0-.5,1.26.72.72,0,0,0-.25.51c-.68,1.85-1.43,3.78-2.27,5.8-.85,1.85-1.74,4-2.65,6.43s-1.8,5-2.65,7.69a6,6,0,0,0-.63,1.89,6.28,6.28,0,0,1-.63,1.89c-.5,1.51-1.13,3.37-1.89,5.55s-1.56,4.45-2.4,6.81q-1.26,4.29-2.64,9.58t-2.65,11q-1.26,5.67-2.27,11.35A86.16,86.16,0,0,0,175.83,162a2.3,2.3,0,0,0,0,1.51,4.14,4.14,0,0,0,1.26,3,19.77,19.77,0,0,0,4.66,3.78,19,19,0,0,0,8,2.27,3.69,3.69,0,0,0,1.38-.38,2.27,2.27,0,0,0,1.14-1.89v-.75a190.12,190.12,0,0,1,12.61-28,216.79,216.79,0,0,1,12.61-20.18,129.1,129.1,0,0,1,13.87-16.64l.5-.25q-1.52,3.52-3,7.56c-1,2.69-2,5.47-3,8.32a13,13,0,0,0,.25,2.15,3.66,3.66,0,0,0,2.27,2.39l3.78,1.52c1.68.67,3.35,1.25,5,1.76a16.88,16.88,0,0,0,4.79.76,3,3,0,0,0,3-1.52q3.28-7.56,6.69-14.12t4.91-8.82A14.16,14.16,0,0,0,258.29,99.68Z" transform="translate(0 -0.02)" style="fill:#fff;stroke:#000;stroke-linejoin:round;stroke-width:7.71999979019165px"/><path d="M288,80.27a28.61,28.61,0,0,0,4.29,2.65,11.32,11.32,0,0,0,4.29,1.26,3.75,3.75,0,0,0,3.27-1.39q3.28-4.29,5.17-6.81c1.26-1.68,2.23-3,2.9-4a8.56,8.56,0,0,0,.89-5.93,19.17,19.17,0,0,0-2.27-5.93,28.86,28.86,0,0,0-3.79-5,23.19,23.19,0,0,0-3.65-3.28,3.58,3.58,0,0,0-3-.88,7.59,7.59,0,0,0-2.52,1.39,14.1,14.1,0,0,0-2.52,2.77l-1.52,2.27a30.73,30.73,0,0,1-1.89,2.77c-.75,1-1.55,2.19-2.39,3.53A26.32,26.32,0,0,0,283,70.12a7.45,7.45,0,0,0,1.76,7.19A19.41,19.41,0,0,0,288,80.27Z" transform="translate(0 -0.02)" style="fill:#fff;stroke:#000;stroke-linejoin:round;stroke-width:7.71999979019165px"/><path d="M367,95.27a25.27,25.27,0,0,0-5-5.67,28.43,28.43,0,0,0-7.57-4.54,9.07,9.07,0,0,0-6.81.76,31.71,31.71,0,0,0-7.69,5.29,68.72,68.72,0,0,0-7.56,8.07q-3.66,4.54-6.68,8.83a29.7,29.7,0,0,1,1.26-3.16,32.82,32.82,0,0,0,1.26-3.15c.67-1.34,1.42-2.9,2.27-4.66s1.34-2.82,1.51-3.15a.48.48,0,0,1,.13-.38.53.53,0,0,0,.12-.38,12.53,12.53,0,0,0,1.77-5.8,8.76,8.76,0,0,0-.51-2.78l-.5-1-.25-.26a25.57,25.57,0,0,0-6.94-5.42,29.75,29.75,0,0,0-5.67-2.39,2.53,2.53,0,0,0-2.65.5,6,6,0,0,0-1.64,2.27l-.5,1a.77.77,0,0,0-.26.5c-.67,1.86-1.43,3.79-2.26,5.8s-1.74,4-2.65,6.43-1.81,5-2.65,7.69a25.14,25.14,0,0,1-1.26,3.79q-.76,2.27-1.89,5.67c-.75,2.27-1.47,4.59-2.15,6.94a40.53,40.53,0,0,0-1.38,4.28c-.38,1.51-.89,3.2-1.39,5.05-.13.35-.24.73-.36,1.09a4,4,0,0,0-.4.92c-1,1.86-2.31,4.25-3.91,7.19a60,60,0,0,1-5.42,8.32,42.18,42.18,0,0,1-6.18,6.56q-3.15,2.64-5.92,1.64c-1.68-.51-2.61-1.85-2.78-4a24.24,24.24,0,0,1,1-7.94A83.12,83.12,0,0,1,279,129.09q2.28-5.41,4.67-10.34c1.6-3.27,3.06-6.17,4.41-8.7s2.35-4.36,3-5.54a16.86,16.86,0,0,0,1.89-4.8,9.22,9.22,0,0,0,.13-3.27,4.51,4.51,0,0,0-1.27-2.52,29.26,29.26,0,0,0-7.06-6.06,33.41,33.41,0,0,0-6.05-3,2.17,2.17,0,0,0-2.27.25,8.63,8.63,0,0,0-1.76,1.76,6.31,6.31,0,0,0-1.52,2.53,266,266,0,0,0-13.87,35.3q-2,6.81-3.4,13.74a59.27,59.27,0,0,0-1.26,12.74,27,27,0,0,0,2.14,10.29,12.5,12.5,0,0,0,6.56,6.55,21.84,21.84,0,0,0,5,1,20.91,20.91,0,0,0,5-.12,13.88,13.88,0,0,0,5.54-2.15,31.53,31.53,0,0,0,8.7-7.44c1.14-1.34,2.25-2.73,3.33-4.15-.06.25-.12.51-.17.75a355.66,355.66,0,0,0-8.7,37.57q-2.89,17.15-4.42,30-1.75,14.88-2,27.24a12.47,12.47,0,0,0,2.26,7.18,3.52,3.52,0,0,0,3,1.39,34.55,34.55,0,0,0,5.55-.63,29.92,29.92,0,0,0,6.93-2.14,21.49,21.49,0,0,0,6.06-4,10.18,10.18,0,0,0,3.15-6,63.91,63.91,0,0,0,0-8.07q-.26-5.55-.25-13.87t.75-19q.76-10.72,2.78-23.32a231.1,231.1,0,0,1,5-27,19.8,19.8,0,0,0,3.4,7.69,15.52,15.52,0,0,0,4.53,3.81,11.5,11.5,0,0,0,5.55,1.52,26,26,0,0,0,14.62-3.16,42,42,0,0,0,11.6-9.58,64.29,64.29,0,0,0,8.7-13.36,101.76,101.76,0,0,0,5.93-14.76,98.41,98.41,0,0,0,3.28-13.74,68.45,68.45,0,0,0,1-10A16.46,16.46,0,0,0,367,95.27Zm-16.89,12.11A88.45,88.45,0,0,1,347.43,120a113.19,113.19,0,0,1-4.79,13.49,128.77,128.77,0,0,1-5.93,12.23,45.75,45.75,0,0,1-6,8.7q-3,3.27-5,3a6.42,6.42,0,0,1-4.67-2.77,22.25,22.25,0,0,1-3-5.55,43.43,43.43,0,0,1-1.76-5.93c-.42-1.93-.72-3.31-.88-4.16.16-.67.33-1.34.5-2l.51-2a66.33,66.33,0,0,1,8.82-13.11A151.76,151.76,0,0,1,336.28,110q6.56-6.3,13.36-12.1A22,22,0,0,1,350.08,107.38Z" transform="translate(0 -0.02)" style="fill:#fff;stroke:#000;stroke-linejoin:round;stroke-width:7.71999979019165px"/><path d="M309.23,293.19a11,11,0,0,1,.85.82,73.44,73.44,0,0,1,7.44,11.05,29,29,0,0,1,2.78,7,11.65,11.65,0,0,1-22.69,5.31c-.06-.26-.11-.51-.15-.77a13.77,13.77,0,0,1,.82-6.78,43,43,0,0,1,4.6-8.95,77.7,77.7,0,0,1,5.1-7,5.8,5.8,0,0,1,.73-.67Zm-7,19.51a3.73,3.73,0,0,1,0-.74.47.47,0,0,0-.38-.55h0a.49.49,0,0,0-.58.35l-.3.83a7.06,7.06,0,0,0,.26,5.52,8.09,8.09,0,0,0,9.18,4.08c.27-.07.48-.18.47-.49s-.26-.41-.54-.44a9,9,0,0,1-3.13-.91A8.52,8.52,0,0,1,302.23,312.7Z" transform="translate(0 -0.02)"/><path d="M302.23,312.7a8.51,8.51,0,0,0,5,7.65,9,9,0,0,0,3.13.91c.28,0,.52.12.54.44s-.2.42-.47.49a8.09,8.09,0,0,1-9.18-4.08,7.06,7.06,0,0,1-.26-5.52l.3-.83a.49.49,0,0,1,.58-.35.47.47,0,0,1,.39.54h0C302.26,312.21,302.25,312.46,302.23,312.7Z" transform="translate(0 -0.02)" style="fill:#00fff2"/></svg>
