<svg id="Layer_1" data-name="Layer 1" xmlns="http://www.w3.org/2000/svg" viewBox="0 0 260.79 260.79"><defs><style>.cls-1{fill:#d8d8d8;}.cls-2{fill:#c6c6c6;}.cls-3{fill:#181818;}.cls-4{fill:none;}.cls-5{fill:#0c0c0c;}.cls-6{fill:#fff;}</style></defs><title>faceook</title><circle class="cls-1" cx="505.38" cy="365.6" r="130.4" transform="translate(-485.48 229.24) rotate(-45)"/><path class="cls-2" d="M505.38,235.21h-.68V496l.68,0a130.4,130.4,0,1,0,0-260.79Z" transform="translate(-374.98 -235.21)"/><circle class="cls-3" cx="130.4" cy="130.4" r="121.74"/><path class="cls-4" d="M504.7,243.88a121.73,121.73,0,0,0,0,243.45Z" transform="translate(-374.98 -235.21)"/><path class="cls-5" d="M505.38,487.35a121.75,121.75,0,0,0,0-243.49l-.68,0V487.33Z" transform="translate(-374.98 -235.21)"/><path class="cls-6" d="M534.46,369H515.17v62.07h-28.6V369H473V344.7h13.6V329c0-11.25,5.34-28.85,28.85-28.85l21.18.09V323.8H521.23c-2.52,0-6.06,1.26-6.06,6.63v14.3H537Zm3.33.72" transform="translate(-374.98 -235.21)"/></svg>