<svg id="Layer_1" data-name="Layer 1" xmlns="http://www.w3.org/2000/svg" viewBox="0 0 635.5 635.5"><defs><style>.cls-1{fill:#0031ff;}</style></defs><title>globe</title><path class="cls-1" d="M703.25,55.5C528,55.5,385.5,198,385.5,373.25S528,691,703.25,691,1021,548.46,1021,373.25,878.42,55.5,703.25,55.5ZM423.82,391.94H533.61a439.6,439.6,0,0,0,19.18,112.15H455.48A277.57,277.57,0,0,1,423.82,391.94Zm109.79-37.38H423.82a277.57,277.57,0,0,1,31.66-112.15h97.19A439.9,439.9,0,0,0,533.61,354.56Zm58.65-112.15H812.67a403.34,403.34,0,0,1,21.27,112.15H571A401.9,401.9,0,0,1,592.26,242.41ZM571,391.94H834a404.58,404.58,0,0,1-21.39,112.15H592.37A403.48,403.48,0,0,1,571,391.94Zm300.37,0H982.68A277.57,277.57,0,0,1,951,504.09H852.18A440,440,0,0,0,871.36,391.94Zm0-37.38a439.91,439.91,0,0,0-19.07-112.15H951a278.84,278.84,0,0,1,31.66,112.15ZM927,205H839A455.37,455.37,0,0,0,781.08,104.1,281,281,0,0,1,927,205ZM724.11,93.93A423.44,423.44,0,0,1,797.83,205H607.1A422.49,422.49,0,0,1,680.75,94c7.44-.56,14.88-1.12,22.5-1.12C710.28,92.88,717.19,93.44,724.11,93.93Zm-100.6,10.65A455.35,455.35,0,0,0,565.94,205h-86.5A281.08,281.08,0,0,1,623.51,104.58ZM479.44,541.47h86.62A453.39,453.39,0,0,0,623.89,642,280.7,280.7,0,0,1,479.44,541.47Zm201.75,111a424.82,424.82,0,0,1-73.94-111H797.68a423.68,423.68,0,0,1-74,111.1c-6.77.49-13.57,1-20.45,1C695.77,653.62,688.48,653.06,681.19,652.5Zm99.48-10a455.1,455.1,0,0,0,58.2-101H927A281,281,0,0,1,780.67,642.51Z" transform="translate(-385.5 -55.5)"/></svg>