<svg id="Layer_1" data-name="Layer 1" xmlns="http://www.w3.org/2000/svg" viewBox="0 0 329.8 329.79"><defs><style>.cls-1{fill:#d8d8d8;}.cls-2{fill:#c6c6c6;}.cls-3{fill:#181818;}.cls-4{fill:none;}.cls-5{fill:#0c0c0c;}.cls-6{fill:#fff;}</style></defs><title>insta</title><circle class="cls-1" cx="516.57" cy="402.1" r="164.9" transform="translate(-484.7 245.84) rotate(-45)"/><path class="cls-2" d="M516.57,237.21l-.85,0V567l.85,0a164.9,164.9,0,1,0,0-329.79Z" transform="translate(-351.67 -237.21)"/><circle class="cls-3" cx="164.9" cy="164.9" r="153.95"/><path class="cls-4" d="M515.72,248.17a153.94,153.94,0,0,0,0,307.87Z" transform="translate(-351.67 -237.21)"/><path class="cls-5" d="M516.57,556.06a154,154,0,1,0,0-307.91l-.85,0V556Z" transform="translate(-351.67 -237.21)"/><path class="cls-6" d="M556,317.73H481a46.06,46.06,0,0,0-46.06,46.06v75A46.06,46.06,0,0,0,481,484.82h75A46.06,46.06,0,0,0,602,438.76v-75A46.06,46.06,0,0,0,556,317.73Zm32.56,120.84a32.76,32.76,0,0,1-32.75,32.75H481.18a32.75,32.75,0,0,1-32.75-32.75V364a32.75,32.75,0,0,1,32.75-32.75h74.59A32.75,32.75,0,0,1,588.52,364Z" transform="translate(-351.67 -237.21)"/><path class="cls-6" d="M518.47,357.24a44,44,0,1,0,44,44A44,44,0,0,0,518.47,357.24Zm0,72.75a28.72,28.72,0,1,1,28.72-28.72A28.72,28.72,0,0,1,518.47,430Z" transform="translate(-351.67 -237.21)"/><path class="cls-6" d="M573.88,355.78A9.88,9.88,0,1,1,564,345.9,9.87,9.87,0,0,1,573.88,355.78Z" transform="translate(-351.67 -237.21)"/></svg>