<svg id="Layer_1" data-name="Layer 1" xmlns="http://www.w3.org/2000/svg" viewBox="0 0 319.64 275.15"><defs><style>.cls-1{fill:blue;}</style></defs><title>moneyback</title><path class="cls-1" d="M857.76,375.86a11.81,11.81,0,0,1-2.94,3.43,5.9,5.9,0,0,1-7.78,0c-3.63-2.86-6.81-6.22-10.14-9.42a22.34,22.34,0,0,1-1.47-1.73l-.41.22c-.24,2.94-.48,5.87-.71,8.81-1.86,24.19-9.24,46.51-22.93,66.59q-31.59,46.34-86.49,58.2a140.12,140.12,0,0,1-23.9,2.92,28.57,28.57,0,0,1-3.58-.13c-4.22-.38-6.78-3-6.72-6.88,0-3.4,3-6.06,7.07-6.22a146.24,146.24,0,0,0,19.6-2c30.23-5.33,55.5-19.42,75.18-43.07a124.59,124.59,0,0,0,28.82-78.16c0-.32,0-.64,0-1-.69,0-.92.56-1.28.9-3.75,3.54-7.3,7.31-11.22,10.67a5.91,5.91,0,0,1-5.72,1.45,6.2,6.2,0,0,1-3.49-9.8,55.68,55.68,0,0,1,5.39-5.89q9.39-9.41,18.8-18.79c2.05-2,3.65-2.31,6.29-1a12.85,12.85,0,0,1,3,2.17q11.34,10.45,21.79,21.78a12.59,12.59,0,0,1,2.84,4.63Z" transform="translate(-538.12 -229.75)"/><path class="cls-1" d="M698.6,229.75c.06.26.25.3.48.32a6.39,6.39,0,0,1,5.95,6c.26,2.88-1.75,5.49-5,6.31a62.47,62.47,0,0,1-11,1.39c-27,2-50.71,11.91-71.19,29.46a122.14,122.14,0,0,0-39.41,62.48c-2.53,9.46-4.48,24.59-4.05,31.74.5-.44.92-.8,1.32-1.19,3.53-3.39,7-6.8,10.57-10.18a6.51,6.51,0,0,1,7.18-1.67,6.2,6.2,0,0,1,2.95,9.08,41.63,41.63,0,0,1-5.42,6.07c-6.71,6.74-13.46,13.44-20.16,20.19a2.45,2.45,0,0,1-2.29.72,10.26,10.26,0,0,1-5.89-2.86,290.12,290.12,0,0,1-22.85-23,6,6,0,0,1,.05-8.39,6.37,6.37,0,0,1,8.67-.93c3.64,2.78,6.73,6.16,10,9.3a19,19,0,0,0,2.12,2.07c.13-4,.54-7.79.89-11.6,2.84-30.27,14.29-56.83,34.61-79.43,19.16-21.3,42.82-35.24,70.63-42.08a124,124,0,0,1,22-3.42c.33,0,.79.2,1-.33h2.28c.64.36,1.34.09,2,.17a7.81,7.81,0,0,0,2.55-.17Z" transform="translate(-538.12 -229.75)"/><path class="cls-1" d="M696.64,229.75c-.81.64-1.74.22-2.62.28-.09-.07-.12-.13-.09-.19s.07-.09.11-.09Z" transform="translate(-538.12 -229.75)"/><path class="cls-1" d="M694,229.75c0,.09,0,.19,0,.28-.65-.07-1.37.39-1.94-.28Z" transform="translate(-538.12 -229.75)"/><path class="cls-1" d="M625.07,481.9c-4,0-6.85-2.74-6.83-6.48a6.9,6.9,0,0,1,6.73-6.58,6.8,6.8,0,0,1,6.64,6.65C631.59,478.36,629.19,482.19,625.07,481.9Z" transform="translate(-538.12 -229.75)"/><path class="cls-1" d="M718.72,239.36c.14-3.9,2.88-6.83,6.27-6.71,3.69.14,7.14,3.44,7.1,6.78-.05,3.13-3.65,6.66-6.74,6.6S718.62,242.38,718.72,239.36Z" transform="translate(-538.12 -229.75)"/><path class="cls-1" d="M575.47,418.7a6.1,6.1,0,0,1-6.34-6.2c.08-4.33,3.06-7,6.23-7.08,3.46-.13,7.13,3.67,7.12,7C582.47,415.44,578.8,418.72,575.47,418.7Z" transform="translate(-538.12 -229.75)"/><path class="cls-1" d="M744.73,247.37a6.42,6.42,0,0,1,6.8-6.51,6.6,6.6,0,0,1,6.22,6.68A6.9,6.9,0,0,1,751,254.1,6.31,6.31,0,0,1,744.73,247.37Z" transform="translate(-538.12 -229.75)"/><path class="cls-1" d="M681.44,495.64a6.69,6.69,0,0,1-6.65,6.79,6.82,6.82,0,0,1-6.59-6.73c0-3.16,3.38-6.36,6.82-6.37A6.17,6.17,0,0,1,681.44,495.64Z" transform="translate(-538.12 -229.75)"/><path class="cls-1" d="M811,307.45a6.63,6.63,0,0,1-6.48-6.76,6.29,6.29,0,0,1,6.44-6.35,6.48,6.48,0,0,1,6.72,6.47A6.85,6.85,0,0,1,811,307.45Z" transform="translate(-538.12 -229.75)"/><path class="cls-1" d="M594,436.76a6.67,6.67,0,0,1-6.67,6.52,6.48,6.48,0,0,1-6.24-6.45c0-3.32,3.09-6.9,5.93-6.88C591.41,430,594,432.5,594,436.76Z" transform="translate(-538.12 -229.75)"/><path class="cls-1" d="M648.85,494.92a6.52,6.52,0,0,1-6.48-6.72,6.37,6.37,0,0,1,6.36-6.46c3.86,0,6.66,2.69,6.61,6.31C655.29,492,652.54,495,648.85,494.92Z" transform="translate(-538.12 -229.75)"/><path class="cls-1" d="M604.45,451.39a6.46,6.46,0,0,1,6.27,6.41c0,3.26-3.17,6.92-6,6.88-4.55-.06-6.9-2.62-7-7.13C597.64,454,601.67,451.25,604.45,451.39Z" transform="translate(-538.12 -229.75)"/><path class="cls-1" d="M828.77,325.34a6.53,6.53,0,1,1-6.34-6.4A6.21,6.21,0,0,1,828.77,325.34Z" transform="translate(-538.12 -229.75)"/><path class="cls-1" d="M788.54,279.44c0-3.72,2.88-7.1,6.16-7.17s6.77,3.3,6.79,6.8a6.45,6.45,0,0,1-6.44,6.4A6.17,6.17,0,0,1,788.54,279.44Z" transform="translate(-538.12 -229.75)"/><path class="cls-1" d="M781.17,261.13a6.54,6.54,0,1,1-13.08-.22,6.25,6.25,0,0,1,6.22-6.38A6.8,6.8,0,0,1,781.17,261.13Z" transform="translate(-538.12 -229.75)"/><path class="cls-1" d="M720.35,362.44c-4.53-1.7-9.26-1.68-14-1.89-1.38-.06-1.92-.33-1.91-1.9q.12-17.52,0-35c0-1.37.35-1.7,1.7-1.69,7.61.07,15.22,0,22.83,0a2.56,2.56,0,0,0,1.83-.44c4.18-3.35,4.54-7.11,1.12-11.22a3.57,3.57,0,0,0-3-1.42c-7.61-.08-15.21-.28-22.82-.37-1.21,0-1.66-.27-1.64-1.61.09-5.76,0-11.52,0-17.28a2.33,2.33,0,0,0-.45-1.81c-3.74-4.09-7.07-5.89-11.92-.51a.63.63,0,0,1-.11.12,2.37,2.37,0,0,0-.93,2.25c0,5.27,0,10.54,0,15.81,0,3.07,0,3.08-3,3.08-12,0-21.74,4.61-29,14.42-11,15-5.43,38.05,11.42,47a36.16,36.16,0,0,0,19,4c1.19-.06,1.56.23,1.55,1.49-.08,6,0,12,0,17.93s0,12.07,0,18.1c0,1-.24,1.29-1.25,1.25-2.12-.08-4.24-.05-6.36,0-5.81.09-11.62-.08-17.44.17-2.94.13-5.65,3.37-5.44,6.38a9.19,9.19,0,0,0,2.53,5.33,2.91,2.91,0,0,0,2.45,1.19c8,.07,16,.26,24,.31,1.37,0,1.57.48,1.55,1.67-.06,3.91,0,7.83,0,11.74a26.93,26.93,0,0,0,.88,7.58,4.32,4.32,0,0,0,4.34,3.48,20.67,20.67,0,0,0,2.61,0c2.67-.15,4.06-1.28,4.74-3.87a17.84,17.84,0,0,0,.41-2.41c.62-5.52.29-11.07.33-16.61,0-1.22.21-1.71,1.56-1.63a40.24,40.24,0,0,0,8.76-.6c15.51-2.55,27.67-17.05,27.44-32.77C742.05,379.16,733.48,367.37,720.35,362.44Zm-29.23-21c0,6,0,12,0,18.08,0,1.11-.3,1.35-1.36,1.21a68.56,68.56,0,0,1-9.33-1.36c-9.53-2.62-14-12.53-13.68-18.74a19.32,19.32,0,0,1,15.7-18.29,48.83,48.83,0,0,1,7.14-.46c1.17-.05,1.56.19,1.54,1.47C691.08,329.42,691.12,335.45,691.12,341.48Zm37.32,55.11c-1.49,8.08-6.71,13-14.6,15.12a71,71,0,0,1-7.4,1.09c-1.85.3-2-.4-2-1.91.08-5.81,0-11.63,0-17.44,0-6,0-12.07,0-18.1,0-1,.24-1.36,1.33-1.39,5.31-.17,10.45.31,14.86,3.67C727,382.42,729.87,388.8,728.44,396.59Z" transform="translate(-538.12 -229.75)"/></svg>