<svg id="Layer_1" data-name="Layer 1" xmlns="http://www.w3.org/2000/svg" viewBox="0 0 564.95 196.53"><defs><style>.cls-1{fill:#474747;}</style></defs><title>nikelogo</title><path d="M871.94,294.06q-61,25.82-122.06,51.63-145.73,61.55-291.49,123c-22.91,9.63-46.54,17.05-71.53,18.95-18.31,1.39-36.06-.49-51.52-11.51-14.17-10.1-22-24-23.32-41.52-.09-1.15.79-2.74-1-3.44v-4c2.27-4.88,1.35-10.25,2.41-15.33,4.89-23.46,15.59-44.27,29.09-63.76,13.66-19.71,29.68-37.51,45.63-55.34.29-.33.86-.4,2-.9-3,6.27-5.87,11.9-8.37,17.69-6.64,15.38-10.95,31.22-9.86,48.26,1.51,23.7,17.88,41.78,41.44,45.38,20.53,3.14,40.45-.31,60.19-5.54L867.28,293.39c.81-.21,1.64-.3,2.46-.44C870.73,292.82,872,292.13,871.94,294.06Z" transform="translate(-311 -291.51)"/><path class="cls-1" d="M871.94,294.06c-.38-1.06-1.48-.71-2.2-1.11,2-1,3.94-2.27,6.21-.68A5.87,5.87,0,0,1,871.94,294.06Z" transform="translate(-311 -291.51)"/></svg>