<svg id="Layer_1" data-name="Layer 1" xmlns="http://www.w3.org/2000/svg" viewBox="0 0 564.93 196.52"><defs><style>.cls-1{fill:#fff;}.cls-2{fill:#474747;}</style></defs><title>nikelogoW</title><path class="cls-1" d="M560.94,2.55,438.88,54.18q-145.72,61.54-291.49,123c-22.91,9.63-46.54,17-71.53,18.95-18.31,1.39-36.06-.49-51.52-11.51-14.17-10.1-22-24-23.32-41.52-.09-1.15.79-2.74-1-3.44v-4c2.27-4.88,1.35-10.25,2.41-15.33C7.32,96.87,18,76.06,31.52,56.57,45.18,36.86,61.2,19.06,77.15,1.23c.29-.33.86-.4,2-.9-3,6.27-5.87,11.9-8.37,17.69-6.64,15.38-11,31.22-9.86,48.26,1.51,23.7,17.88,41.78,41.44,45.38,20.53,3.14,40.45-.31,60.19-5.54L556.28,1.88c.81-.21,1.64-.3,2.46-.44C559.73,1.31,561,.62,560.94,2.55Z" transform="translate(-0.02 -0.01)"/><path class="cls-2" d="M560.94,2.55c-.38-1.06-1.48-.71-2.2-1.11,2-1,3.94-2.27,6.21-.68A5.89,5.89,0,0,1,560.94,2.55Z" transform="translate(-0.02 -0.01)"/></svg>