<svg id="Layer_1" data-name="Layer 1" xmlns="http://www.w3.org/2000/svg" viewBox="0 0 510.21 396.71"><title>pumalogo</title><path d="M274.54,355.37c5.38-.12,10.62.9,15.89,1.66,3.95.58,8.21,1.66,10.3-3.35,2-4.85.42-11-3.58-14-4.4-3.3-9.54-3.66-14.77-3.43a23.4,23.4,0,0,0-4.95.65c-7.8,2.08-13.82-.36-19.16-6.3-3.18-3.55-7.46-6.1-11.16-9.19-6.54-5.48-6.68-11.17-.33-16.73,3.73-3.27,6.61-6.9,7.67-11.91a14.1,14.1,0,0,1,7.56-10c8.14-4.2,12.61-11.67,16.64-19.39,2.05-3.93,4.07-4.27,7-1,1.77,2,3.86,3.73,5.45,5.85,2,2.67,3.56,2.33,5.25-.16a14.33,14.33,0,0,1,1.35-1.47c8.72-9.42,9.45-9.54,15.36,1.61,2.78,5.25,6.26,7.48,12.11,8.41,30,4.78,55.76,19.24,80.57,35.76,22.66,15.09,43.49,32.51,63.88,50.48,19.08,16.81,39.33,31.85,62.69,42.37,12.24,5.51,24.87,9.43,38.27,10.73,19.86,1.92,35.6-6.31,49.14-19.92a110.15,110.15,0,0,0,23.86-34.81c6.32-14.86,12.07-30,19.55-44.33,11.82-22.65,27.8-41.4,50.59-53.73a44,44,0,0,1,10.63-4.21c13.05-3.12,21.9,5,19.57,18.17-1.72,9.79-6.32,17.81-15.32,22.78-5.83,3.22-11.51,6.75-17.51,9.59-22.32,10.56-38.51,27.07-48.83,49.41-4.75,10.29-10,20.37-14.08,30.91-6.71,17.44-18.15,30.85-32.93,41.78-1.47,1.09-2.84,2.32-4.31,3.4-2.07,1.53-2,3.15-.5,5.06,12.21,15.16,16,33.45,19,51.95a228.94,228.94,0,0,1,2.9,44.83,33.92,33.92,0,0,0,14,29c9.57,7.22,15.27,14.93,15.44,27.13.1,7.07,4,13.32,7.79,19.25,2.7,4.25,3.36,8.57,1.42,13.29-2.36,5.73-1.83,11.79-1.76,17.77.14,11.12-4.11,14.08-14.9,10.05-9.71-3.62-14-11.87-17-21s-3.34-18.74-3-28.21c.31-9.08-2.8-15.19-10.3-20.8-30.37-22.69-51.78-52.4-65.87-87.5-1.86-4.63-3.94-9.19-6.24-13.61-11.29-21.66-29.22-33-53.62-34.11-16-.75-31.88-2-47.5-5.82a123.25,123.25,0,0,1-56.08-30.13c-6.94-6.48-13.83-13-21-19.29-6.69-5.89-5.48-6.33-12.56-.4-10.18,8.53-21.55,11.87-34.8,10-11.87-1.65-22.86-5.79-33.78-10.31-7.38-3.06-14.67-6.35-22.11-9.26-4.63-1.81-6.29-.71-7.51,4.09-2.39,9.39-3.95,11.12-10.07,11.17-7.77.07-16.26-5.85-18.07-12.59-2.42-9,.89-17.14,9.15-22.3C253.33,357.37,263.73,355.53,274.54,355.37Z" transform="translate(-234.05 -258.22)"/></svg>