<svg id="Layer_1" data-name="Layer 1" xmlns="http://www.w3.org/2000/svg" viewBox="0 0 510.25 396.75"><defs><style>.cls-1{fill:#fff;}</style></defs><title>pumalogoW</title><path class="cls-1" d="M40.49,97.15c5.38-.12,10.62.9,15.89,1.66,3.95.58,8.21,1.66,10.3-3.35,2-4.85.42-11-3.58-14-4.4-3.3-9.54-3.66-14.77-3.43a23.57,23.57,0,0,0-4.95.65c-7.8,2.08-13.82-.36-19.16-6.3-3.18-3.55-7.46-6.1-11.16-9.19C6.52,57.71,6.38,52,12.73,46.46c3.73-3.27,6.61-6.9,7.67-11.91a14.12,14.12,0,0,1,7.56-10C36.1,20.35,40.57,12.88,44.6,5.16c2-3.93,4.07-4.27,7-1,1.77,2,3.86,3.73,5.45,5.85,2,2.67,3.56,2.33,5.25-.16a15.68,15.68,0,0,1,1.35-1.47C72.37-1,73.1-1.16,79,10c2.78,5.25,6.26,7.48,12.11,8.41,30,4.78,55.76,19.24,80.57,35.76,22.66,15.09,43.49,32.51,63.88,50.48,19.08,16.81,39.33,31.85,62.69,42.37,12.24,5.51,24.87,9.43,38.27,10.73,19.86,1.92,35.6-6.31,49.14-19.92A110.33,110.33,0,0,0,409.53,103c6.32-14.86,12.07-30,19.55-44.33C440.9,36,456.88,17.28,479.67,5A44.29,44.29,0,0,1,490.3.74c13.05-3.12,21.9,5,19.57,18.17-1.72,9.79-6.32,17.81-15.32,22.78C488.72,44.91,483,48.44,477,51.28c-22.32,10.56-38.51,27.07-48.83,49.41-4.75,10.29-10,20.37-14.08,30.91C407.42,149,396,162.45,381.2,173.38c-1.47,1.09-2.84,2.32-4.31,3.4-2.07,1.53-2,3.15-.5,5.06,12.21,15.16,16,33.45,19,51.95a228.89,228.89,0,0,1,2.9,44.83,33.92,33.92,0,0,0,14,29c9.57,7.22,15.27,14.93,15.44,27.13.1,7.07,4,13.32,7.79,19.25,2.7,4.25,3.36,8.57,1.42,13.29-2.36,5.73-1.83,11.79-1.76,17.77.14,11.12-4.11,14.08-14.9,10.05-9.71-3.62-14-11.87-17-21s-3.34-18.74-3-28.21c.31-9.08-2.8-15.19-10.3-20.8-30.37-22.69-51.78-52.4-65.87-87.5-1.86-4.63-3.94-9.19-6.24-13.61-11.29-21.66-29.22-33-53.62-34.11-16-.75-31.88-2-47.5-5.82a123.26,123.26,0,0,1-56.08-30.13c-6.94-6.48-13.83-13-21-19.29-6.69-5.89-5.48-6.33-12.56-.4-10.18,8.53-21.55,11.87-34.8,10-11.87-1.65-22.86-5.79-33.78-10.31-7.38-3.06-14.67-6.35-22.11-9.26-4.63-1.81-6.29-.71-7.51,4.09-2.39,9.39-3.95,11.12-10.07,11.17C11.07,140,2.58,134.08.77,127.34c-2.42-9,.89-17.14,9.15-22.3C19.28,99.15,29.68,97.31,40.49,97.15Z" transform="translate(0 -0.07)"/></svg>