<svg id="Layer_1" data-name="Layer 1" xmlns="http://www.w3.org/2000/svg" viewBox="0 0 737.25 983"><defs><style>.cls-1{fill:blue;}</style></defs><title>shield</title><path class="cls-1" d="M827,312.42c74.83,45.26,142.29,65.53,204.79,75.07V705.33c0,65.78-17,79.25-204.79,195Zm368.63-79.54V705.33c0,188.53-131.19,237.72-368.63,387.67-237.44-150-368.62-199.14-368.62-387.67V232.88c144,0,230.55-5.49,368.62-122.88C965.07,227.39,1051.62,232.88,1195.63,232.88Zm-81.92,80.27c-100.19-5.08-184.31-25-286.71-98.95-102.4,73.93-186.52,93.87-286.71,98.95V705.33c0,124.59,69.22,156.87,286.71,291.09,217.61-134.38,286.71-166.5,286.71-291.09Z" transform="translate(-458.38 -110)"/></svg>