<svg id="Layer_1" data-name="Layer 1" xmlns="http://www.w3.org/2000/svg" viewBox="0 0 325.21 325.21"><defs><style>.cls-1{fill:#d8d8d8;}.cls-2{fill:#c6c6c6;}.cls-3{fill:#181818;}.cls-4{fill:none;}.cls-5{fill:#0c0c0c;}.cls-6{fill:#fff;}</style></defs><title>twitter</title><circle class="cls-1" cx="535.39" cy="339.81" r="162.61" transform="translate(-456.26 300.9) rotate(-45)"/><path class="cls-2" d="M535.39,177.21l-.84,0V502.4l.84,0a162.61,162.61,0,1,0,0-325.21Z" transform="translate(-372.79 -177.21)"/><circle class="cls-3" cx="162.61" cy="162.61" r="151.82"/><path class="cls-4" d="M534.55,188a151.8,151.8,0,0,0,0,303.59Z" transform="translate(-372.79 -177.21)"/><path class="cls-5" d="M535.39,491.63a151.82,151.82,0,1,0,0-303.63l-.84,0V491.61Z" transform="translate(-372.79 -177.21)"/><path class="cls-6" d="M619.27,292.12a64.17,64.17,0,0,1-18.56,5.08,32.42,32.42,0,0,0,14.21-17.87,64.76,64.76,0,0,1-20.52,7.84,32.35,32.35,0,0,0-55.07,29.48,91.77,91.77,0,0,1-66.61-33.77,32.34,32.34,0,0,0,10,43.15,32.11,32.11,0,0,1-14.64-4v.41A32.32,32.32,0,0,0,494,354.07a32.26,32.26,0,0,1-14.59.56,32.33,32.33,0,0,0,30.19,22.44,65.27,65.27,0,0,1-47.84,13.39A91.41,91.41,0,0,0,511.29,405c59.44,0,91.95-49.24,91.95-92,0-1.4,0-2.8-.09-4.18a65.75,65.75,0,0,0,16.12-16.73Zm0,0" transform="translate(-372.79 -177.21)"/></svg>