<svg id="Layer_1" data-name="Layer 1" xmlns="http://www.w3.org/2000/svg" viewBox="0 0 235.31 235.31"><defs><style>.cls-1{fill:#d8d8d8;}.cls-2{fill:#c6c6c6;}.cls-3{fill:#181818;}.cls-4{fill:none;}.cls-5{fill:#0c0c0c;}.cls-6{fill:#fff;fill-rule:evenodd;}</style></defs><title>youtube</title><circle class="cls-1" cx="512.4" cy="384.35" r="117.65" transform="translate(-516.44 208.2) rotate(-45)"/><path class="cls-2" d="M512.4,266.69l-.61,0V502l.61,0a117.66,117.66,0,0,0,0-235.31Z" transform="translate(-394.75 -266.69)"/><circle class="cls-3" cx="117.65" cy="117.65" r="109.85"/><path class="cls-4" d="M511.79,274.52a109.83,109.83,0,0,0,0,219.66Z" transform="translate(-394.75 -266.69)"/><path class="cls-5" d="M512.4,494.19a109.85,109.85,0,1,0,0-219.69l-.61,0V494.18Z" transform="translate(-394.75 -266.69)"/><path class="cls-6" d="M570.65,363.06a17.2,17.2,0,0,0-17.2-17.21H472.76a17.19,17.19,0,0,0-17.2,17.21V409.2a17.2,17.2,0,0,0,17.2,17.21h80.69a17.21,17.21,0,0,0,17.2-17.21ZM501.59,405.6V362.26l32.87,21.66Zm0,0" transform="translate(-394.75 -266.69)"/></svg>